<svg xmlns="http://www.w3.org/2000/svg" width="583" height="544" fill="none"><circle cx="300.122" cy="271.772" r="270.382" stroke="#A7CEFC" stroke-dasharray="15 15" stroke-width="2"/><circle cx="300.122" cy="271.772" r="157.888" stroke="#A7CEFC" stroke-dasharray="15 15" stroke-width="2"/><circle cx="28.739" cy="272.183" r="28.739" fill="#FF5758"/><circle cx="459.011" cy="272.183" r="28.739" fill="#37A3FF"/><circle cx="300.532" cy="430.66" r="28.739" fill="#FFBF60"/><circle cx="141.234" cy="272.183" r="28.739" fill="#37A3FF"/><circle cx="141.234" cy="495.529" r="28.739" fill="#37A3FF"/><circle cx="491.855" cy="87.429" r="28.739" fill="#37A3FF"/><circle cx="554.26" cy="358.401" r="28.739" fill="#00CA75"/><mask id="a" width="58" height="59" x="525" y="329" maskUnits="userSpaceOnUse" style="mask-type:alpha"><circle cx="554.26" cy="358.401" r="28.739" fill="#C4C4C4"/></mask><circle cx="301.354" cy="112.884" r="28.739" fill="#00CA75"/><mask id="b" width="59" height="58" x="272" y="84" maskUnits="userSpaceOnUse" style="mask-type:alpha"><circle cx="301.354" cy="112.884" r="28.739" fill="#C4C4C4"/></mask><circle cx="143.698" cy="48.015" r="28.739" fill="#FFDC4D"/><g filter="url(#c)"><rect width="82.113" height="82.113" x="259" y="231" fill="#fff" rx="10"/></g><g fill="#5986EF" clip-path="url(#d)"><path d="M274 255.262v9.315c0 2.837 3.59 4.35 5.784 2.364l10.47-9.315c2.294-2.033.798-5.626-2.343-5.626H277.44c-1.894 0-3.44 1.466-3.44 3.262ZM323.56 252h-10.471c-3.091 0-4.637 3.593-2.343 5.626l10.47 9.315c2.194 1.938 5.784.473 5.784-2.364v-9.315c0-1.796-1.546-3.262-3.44-3.262ZM302.868 274.742l18.348 16.36c2.194 1.938 5.784.473 5.784-2.364v-9.409c0-.899-.399-1.75-1.097-2.364l-23.035-20.568a3.606 3.606 0 0 0-4.736 0l-23.035 20.568c-.698.614-1.097 1.465-1.097 2.364v9.409c0 2.837 3.59 4.35 5.784 2.364l18.348-16.36a3.606 3.606 0 0 1 4.736 0Z"/></g><defs><clipPath id="d"><path fill="#fff" d="M274 252h53v40h-53z"/></clipPath><filter id="c" width="160.113" height="160.113" x="220" y="196" color-interpolation-filters="sRGB" filterUnits="userSpaceOnUse"><feFlood flood-opacity="0" result="BackgroundImageFix"/><feColorMatrix in="SourceAlpha" result="hardAlpha" values="0 0 0 0 0 0 0 0 0 0 0 0 0 0 0 0 0 0 127 0"/><feMorphology in="SourceAlpha" radius="11" result="effect1_dropShadow_9_7867"/><feOffset dy="4"/><feGaussianBlur stdDeviation="25"/><feComposite in2="hardAlpha" operator="out"/><feColorMatrix values="0 0 0 0 0 0 0 0 0 0 0 0 0 0 0 0 0 0 0.25 0"/><feBlend in2="BackgroundImageFix" result="effect1_dropShadow_9_7867"/><feBlend in="SourceGraphic" in2="effect1_dropShadow_9_7867" result="shape"/></filter></defs></svg>