<svg xmlns="http://www.w3.org/2000/svg" width="1440" height="434" fill="none"><g fill="#FFE492" opacity=".3"><path d="M486.505 433.345c-7.104 0-14.018-.353-20.662-1.059-13.935-1.482-26.81-4.523-38.266-9.041-12.314-4.854-23.114-11.469-32.103-19.659-18.065-16.463-27.103-36.178-35.845-55.245-1.717-3.744-3.493-7.615-5.295-11.371-12.3-25.601-27.893-48.026-47.665-68.557-39.442-40.955-94.911-75.908-160.412-101.078-75.752-29.108-157.198-43.608-229.336-40.828-42.399 1.635-98.42 17.181-123.458 43.73-14.858 15.757-16.056 33.242-3.462 50.564l-.25.073c-6.604-9.084-9.481-18.191-8.549-27.068.854-8.144 4.9-16.104 12.025-23.66 11.333-12.018 30.022-22.669 54.048-30.804 22.201-7.515 46.928-12.136 69.63-13.011 37.752-1.454 77.903 1.773 119.337 9.592 37.56 7.088 74.623 17.606 110.158 31.26 65.54 25.185 121.041 60.156 160.506 101.136 19.783 20.544 35.383 42.982 47.692 68.597 1.805 3.756 3.58 7.629 5.295 11.373 8.733 19.053 17.766 38.754 35.807 55.192 17.447 15.9 41.063 25.531 70.189 28.627 40.336 4.288 89.317-4.68 131.02-23.991 60.1-27.827 101.809-68.33 142.147-107.499 7.071-6.866 14.38-13.965 21.619-20.82 18.791-17.801 44.24-40.868 74.485-61.418 30.915-21.005 62.33-36.437 96.043-47.181 20.635-6.576 42.503-11.007 64.999-13.168 20.778-1.998 42.768-2.121 65.368-.372 38.76 3.004 80.52 11.487 127.66 25.933 92.83 28.447 185.56 62.976 275.61 102.629 85.6 37.689 169.54 80.336 249.51 126.754l-.19.129c-165.76-96.222-342.41-173.388-525.05-229.355-103.18-31.62-185.09-35.559-257.783-12.395-73.952 23.565-125.612 66.093-170.424 108.54-7.236 6.853-14.545 13.953-21.616 20.818-40.349 39.183-82.072 79.699-142.213 107.545-19.434 8.999-41.297 16.018-63.223 20.297-11.583 2.261-23.097 3.739-34.227 4.394a218.39 218.39 0 0 1-13.119.397Z"/><path d="M493.451 423.583c-18.115 0-34.895-2.188-49.891-6.505-16.721-4.814-31.151-12.274-42.891-22.171a98.992 98.992 0 0 1-3.064-2.696c-17.873-16.392-27.312-35.85-36.438-54.67-1.847-3.803-3.754-7.737-5.689-11.554-11.522-22.728-25.397-42.761-42.421-61.238a277.433 277.433 0 0 0-6.458-6.775c-40.022-40.603-95.941-75.113-161.712-99.799-76.3-28.611-157.976-42.512-229.985-39.139-42.091 1.992-97.854 17.793-122.998 44.138-15.057 15.776-16.76 33.296-4.933 50.669l-.253.07c-6.199-9.106-8.747-18.23-7.568-27.118 1.083-8.162 5.293-16.14 12.517-23.712 11.449-11.997 30.083-22.66 53.884-30.837 21.997-7.557 46.617-12.31 69.327-13.384 37.705-1.766 77.9 1.152 119.467 8.671a641.157 641.157 0 0 1 110.679 30.492c65.809 24.7 121.759 59.231 161.806 99.856a279.632 279.632 0 0 1 6.461 6.781c17.035 18.489 30.917 38.532 42.445 61.273 1.938 3.817 3.845 7.751 5.692 11.556 9.123 18.807 18.554 38.252 36.403 54.62a99.95 99.95 0 0 0 3.058 2.691c24.26 20.458 57.593 28.781 92.647 28.781h.574c-.22-.002-.44 0-.659 0Zm7.477-.122c32.589-1.062 66.216-9.005 95.065-20.82 62.229-25.593 106.953-65.12 150.206-103.346 1.781-1.576 3.562-3.148 5.343-4.72 3.91-3.451 8.546-7.537 13.278-11.655 21.228-18.471 46.92-39.962 76.508-59.306 31.481-20.583 62.932-35.857 96.147-46.696 20.41-6.653 41.979-11.34 64.105-13.93 20.51-2.401 42.17-3.079 64.4-2.017 38.39 1.835 79.67 8.793 126.2 21.273 45.36 12.149 82.66 23.585 117.35 35.989 49.16 17.591 95.98 37.858 135.31 55.363 91.41 40.814 181.11 87.159 266.59 137.747l-.18.128c-85.48-50.582-175.17-96.923-266.57-137.732-39.32-17.503-86.13-37.767-135.28-55.352-34.69-12.402-71.97-23.834-117.32-35.979-101.36-27.187-182.23-28.883-254.478-5.334-74.988 24.469-128.391 67.519-172.559 105.95a2412.176 2412.176 0 0 0-13.279 11.656c-1.781 1.57-3.561 3.144-5.342 4.72-43.268 38.237-88.008 77.779-150.281 103.39-15.441 6.324-31.871 11.347-48.838 14.929-15.792 3.331-31.36 5.257-46.375 5.742Z"/><path d="M501.109 414.044c-2.179 0-4.345-.03-6.494-.091-18.098-.507-34.847-3.141-49.78-7.831-16.331-5.13-30.481-12.728-42.053-22.584a107.47 107.47 0 0 1-3.042-2.7c-17.672-16.311-27.505-35.51-37.01-54.075-1.981-3.869-4.031-7.871-6.109-11.755-12.091-22.652-26.331-42.524-43.54-60.752a287.379 287.379 0 0 0-6.556-6.717c-40.602-40.249-96.972-74.316-163.013-98.518-76.842-28.114-158.75-41.417-230.632-37.452-40.473 2.268-96.074 17.167-122.51 44.518-15.273 15.802-17.496 33.37-6.43 50.803l-.256.065c-5.798-9.133-8.01-18.279-6.581-27.182 1.313-8.189 5.699-16.187 13.034-23.776 11.569-11.969 30.143-22.637 53.715-30.851 21.792-7.595 46.299-12.477 69.003-13.749 37.661-2.076 77.9.532 119.596 7.751a644.609 644.609 0 0 1 111.199 29.723c66.079 24.217 122.479 58.303 163.106 98.575a285.848 285.848 0 0 1 6.559 6.723c17.216 18.239 31.465 38.123 43.562 60.787 2.077 3.885 4.127 7.887 6.108 11.757 9.503 18.554 19.327 37.739 36.978 54.031a102.38 102.38 0 0 0 3.036 2.694c47.022 40.051 130.353 35.751 192.076 13.725 64.825-23.337 113.001-62.124 159.591-99.633l.478-.386c4.512-3.636 9.178-7.393 13.822-11.104 49.006-39.148 102.87-79.38 174.785-103.407 20.19-6.731 41.462-11.674 63.219-14.692 20.24-2.806 41.58-4.038 63.42-3.662 38.09.656 78.89 6.09 124.74 16.615 48.19 11.021 84.46 21.151 117.59 32.848 47.2 16.7 92.92 37.802 133.26 56.421 89.82 41.677 178.15 88.626 262.54 139.54l-.19.126c-84.38-50.909-172.7-97.853-262.51-139.527-40.33-18.615-86.05-39.714-133.24-56.408-33.11-11.694-69.37-21.821-117.54-32.838-99.39-22.813-179.2-22.264-251.162 1.729-71.869 24.011-125.711 64.226-174.697 103.359-4.644 3.711-9.311 7.471-13.823 11.105l-.478.385c-23.218 18.692-47.225 38.02-73.149 55.284-29.135 19.402-57.437 33.923-86.524 44.393-30.432 10.859-63.581 16.733-94.098 16.733Z"/><path d="M1705.42 408.185c-83.29-51.237-170.24-98.784-258.45-141.32-3.74-1.789-7.48-3.586-11.24-5.388-38.2-18.34-77.71-37.304-119.96-52.077-40.99-14.293-82.53-23.032-117.76-29.696-97.24-18.507-176-15.713-247.848 8.79-73.759 25.228-130.913 67.114-176.835 100.771-2.756 2.021-5.507 4.044-8.263 6.07-2.034 1.495-4.07 2.991-6.106 4.484-26.147 19.184-49.932 36.335-76.211 51.985-30.022 17.878-58.959 30.971-88.469 40.03-27.657 8.49-57.2 12.982-84.681 12.983-5.007 0-9.939-.148-14.787-.449-17.697-1.1-34.081-4.191-48.695-9.186-15.946-5.45-29.816-13.193-41.228-23.013-1.02-.88-2.036-1.79-3.02-2.705-17.464-16.225-27.678-35.154-37.555-53.459-2.127-3.943-4.328-8.021-6.554-11.98-12.668-22.58-27.276-42.294-44.655-60.267a290.23 290.23 0 0 0-6.656-6.66c-41.184-39.896-98.002-73.52-164.309-97.239C64.751 112.242-17.384 99.54-89.141 104.093c-49.054 3.174-99.217 21.626-121.987 44.868-15.512 15.835-18.263 33.459-7.961 50.966l-.258.061c-5.394-9.167-7.274-18.34-5.587-27.266 1.553-8.218 6.12-16.243 13.573-23.853 11.69-11.934 30.203-22.601 53.539-30.846 21.583-7.625 45.964-12.635 68.654-14.102 37.618-2.388 77.898-.089 119.723 6.83 37.834 6.261 75.425 16.003 111.72 28.955 66.349 23.733 123.197 57.376 164.406 97.296a290.488 290.488 0 0 1 6.659 6.663c17.389 17.984 32.003 37.708 44.679 60.299 2.226 3.96 4.428 8.037 6.555 11.982 9.87 18.294 20.079 37.211 37.521 53.417.984.913 1.998 1.822 3.014 2.7 49.088 42.24 132.521 36.964 189.05 19.612 67.445-20.703 119.055-58.564 164.593-91.971 2.036-1.495 4.07-2.991 6.106-4.484 2.753-2.026 5.507-4.049 8.263-6.07 26.214-19.211 52.1-37.88 80.558-55.083 32.726-19.785 64.246-34.742 96.357-45.726 19.978-6.814 40.948-12.013 62.334-15.452 19.98-3.216 40.99-5 62.45-5.307 37.84-.541 78.16 3.371 123.28 11.955 35.24 6.667 76.8 15.41 117.8 29.711 42.27 14.779 81.79 33.748 120 52.091 3.76 1.802 7.5 3.6 11.24 5.388 88.22 42.539 175.18 90.092 258.47 141.334l-.19.124Z"/><path d="M1702.51 406.543c-83.76-52.544-169.35-100.696-254.39-143.116-5.09-2.537-10.3-5.154-15.33-7.683-36.06-18.113-73.34-36.843-113.84-50.838-40.43-13.924-82.32-21.238-117.97-26.554-94.87-14.288-172.58-9.25-244.536 15.852-68.634 24.031-122.405 60.167-174.405 95.112l-5.711 3.836a6120.174 6120.174 0 0 1-13.77 9.237c-52.053 34.744-104.161 67.309-169.209 83.965a308.644 308.644 0 0 1-48.178 8.33c-17.382 1.595-34.265 1.617-50.185.066-17.29-1.686-33.303-5.226-47.593-10.523-15.551-5.764-29.142-13.647-40.393-23.429a117.708 117.708 0 0 1-2.998-2.71c-17.249-16.13-27.832-34.78-38.065-52.817-2.284-4.024-4.647-8.186-7.032-12.228-13.257-22.511-28.228-42.066-45.771-59.782a295.3 295.3 0 0 0-6.755-6.602c-41.764-39.542-99.03-72.723-165.609-95.959-77.934-27.117-160.3-39.22-231.933-34.077-48.607 3.564-98.541 22.144-121.427 45.185-15.77 15.875-19.065 33.567-9.53 51.162l-.261.058c-4.99-9.207-6.532-18.415-4.583-27.367 1.797-8.253 6.554-16.309 14.138-23.943 11.817-11.895 30.264-22.551 53.353-30.82 21.368-7.654 45.617-12.783 68.277-14.446 37.574-2.698 77.895-.71 119.852 5.91 37.928 5.986 75.691 15.468 112.243 28.186 66.617 23.248 123.916 56.451 165.705 96.015a297.714 297.714 0 0 1 6.758 6.606c17.554 17.725 32.533 37.29 45.795 59.813 2.386 4.042 4.749 8.206 7.033 12.23 10.228 18.026 20.805 36.668 38.035 52.778.973.91 1.981 1.82 2.992 2.705 47.907 41.653 127.506 40.483 186.025 25.499 64.996-16.643 117.082-49.195 169.113-83.924 4.597-3.073 9.26-6.205 13.77-9.236l5.71-3.836c25.527-17.153 51.919-34.892 80.583-51.393 32.465-18.688 63.177-33 93.889-43.754 19.775-6.899 40.448-12.354 61.443-16.213 19.74-3.629 40.42-5.968 61.48-6.953 37.67-1.762 77.52.626 121.82 7.296 35.66 5.32 77.57 12.635 118.03 26.572 40.52 14 77.81 32.735 113.88 50.854 5.03 2.529 10.24 5.143 15.32 7.683 85.06 42.422 170.65 90.578 254.42 143.128l-.19.125Z"/><path d="M1699.59 404.902c-83.03-53.128-167.26-101.883-250.33-144.909-6.24-3.233-12.64-6.595-18.83-9.846-34.11-17.918-69.38-36.446-108.29-49.729-40.25-13.686-82.33-19.517-118.18-23.414-92.25-10.181-168.91-2.899-241.236 22.915-63.122 22.623-114.947 54.683-165.068 85.688a7449.366 7449.366 0 0 1-16.043 9.903 2950.431 2950.431 0 0 1-15.458 9.453c-23.828 14.442-52.198 31.072-81.97 44.904-31.55 14.657-61.567 24.801-91.768 31.013-15.881 3.267-32.02 5.327-47.972 6.122-17.128.854-33.713.226-49.288-1.867-16.876-2.267-32.515-6.257-46.489-11.857-15.152-6.073-28.461-14.098-39.557-23.848-1-.884-2.004-1.797-2.976-2.714-17.022-16.022-27.959-34.384-38.539-52.142-2.453-4.118-4.99-8.377-7.548-12.513-13.853-22.448-29.19-41.842-46.89-59.295a305.075 305.075 0 0 0-6.853-6.545c-42.344-39.187-100.061-71.926-166.909-94.679-78.475-26.62-161.073-38.121-232.579-32.39-40.687 3.332-93.828 18.685-120.83 45.468-16.054 15.924-19.907 33.695-11.138 51.392l-.261.052c-4.586-9.253-5.784-18.502-3.564-27.489 2.05-8.295 7.005-16.386 14.732-24.049 11.943-11.846 30.322-22.485 53.155-30.771 21.154-7.676 45.257-12.923 67.873-14.776 37.53-3.008 77.896-1.33 119.979 4.99 38.018 5.71 75.958 14.934 112.762 27.42 66.887 22.765 124.636 55.523 167.005 94.733a298.813 298.813 0 0 1 6.856 6.55c17.709 17.462 33.053 36.866 46.914 59.325 2.562 4.138 5.098 8.396 7.552 12.515 10.572 17.748 21.506 36.101 38.508 52.105.973.915 1.973 1.826 2.973 2.708 39.855 35.024 108.267 46.758 182.999 31.386 67.678-13.919 122.886-45.117 173.634-75.877a2927.28 2927.28 0 0 0 15.454-9.453c5.315-3.268 10.77-6.64 16.043-9.903 24.675-15.264 50.187-31.047 77.401-45.825 30.772-16.714 59.47-29.762 87.728-39.889 19.585-6.989 39.958-12.701 60.548-16.975 19.51-4.049 39.87-6.941 60.51-8.598 37.58-3.016 76.95-2.153 120.35 2.637 35.88 3.901 77.99 9.733 118.27 23.431 38.93 13.292 74.21 31.825 108.33 49.749 6.19 3.25 12.59 6.613 18.84 9.846 83.07 43.031 167.3 91.789 250.35 144.921l-.2.127Z"/><path d="M1696.68 403.261c-82.32-53.715-165.18-103.075-246.28-146.704-6.9-3.711-13.98-7.607-20.83-11.373-32.65-17.943-66.4-36.495-104.25-49.259-40.28-13.522-82.45-17.836-118.39-20.273-88.07-6.13-165.9 3.676-237.928 29.978-57.354 21.038-106.519 49.182-154.065 76.401-9.604 5.497-19.533 11.183-29.187 16.602a2000.177 2000.177 0 0 1-16.001 8.903c-22.619 12.42-52.707 28.346-84.859 41.361-32.306 13.076-62.861 21.747-93.411 26.508-33.319 5.192-66.573 5.23-96.164.113-16.452-2.846-31.72-7.284-45.381-13.191-14.748-6.378-27.774-14.542-38.719-24.263-.992-.885-1.987-1.8-2.954-2.717-16.78-15.9-28.058-33.96-38.962-51.425-2.638-4.225-5.364-8.593-8.114-12.837-14.461-22.389-30.163-41.627-48.006-58.809a301.965 301.965 0 0 0-6.952-6.487c-42.924-38.834-101.089-71.132-168.206-93.399C59.004 86.271-23.824 75.369-95.206 81.687c-48.376 4.375-96.678 22.746-120.19 45.712-16.362 15.982-20.783 33.846-12.787 51.661l-.263.047c-4.18-9.31-5.032-18.607-2.534-27.632 2.308-8.342 7.475-16.475 15.353-24.172 12.069-11.789 30.377-22.404 52.943-30.697 20.932-7.692 44.884-13.054 67.44-15.093 37.485-3.319 77.895-1.949 120.107 4.07 38.112 5.435 76.227 14.4 113.284 26.65 67.156 22.281 125.354 54.596 168.305 93.454a306.304 306.304 0 0 1 6.955 6.491c17.852 17.193 33.562 36.439 48.03 58.839 2.751 4.244 5.477 8.614 8.115 12.839 10.899 17.456 22.171 35.508 38.934 51.392.967.917 1.959 1.828 2.952 2.714 39.17 34.797 106.449 48.73 179.975 37.274 67.03-10.446 125.238-38.775 178.154-67.831a2015.281 2015.281 0 0 0 15.999-8.901c9.651-5.419 19.583-11.103 29.184-16.601 47.557-27.223 96.73-55.375 154.112-76.421a511.794 511.794 0 0 1 59.668-17.737c19.3-4.476 39.33-7.922 59.53-10.242 37.57-4.314 76.46-4.974 118.89-2.022 35.97 2.439 78.18 6.754 118.49 20.292 37.88 12.773 71.65 31.332 104.31 49.282 6.85 3.766 13.93 7.66 20.83 11.371 81.11 43.632 163.97 92.996 246.29 146.715l-.19.12Z"/><path d="M1693.76 401.618c-81.58-54.308-163.07-104.269-242.21-148.498-7.27-4.064-14.75-8.368-21.99-12.53-31.45-18.094-63.97-36.805-101.06-49.158-40.44-13.407-82.65-16.184-118.61-17.132-84.73-2.398-161.48 9.717-234.608 37.041-51.287 19.253-97.005 43.62-141.221 67.183-15.202 8.104-29.563 15.757-44.169 23.229a1474.532 1474.532 0 0 1-16.546 8.353c-33.512 16.619-61.393 28.635-87.747 37.814-33.061 11.516-64.152 18.714-95.051 22.005a337.467 337.467 0 0 1-35.655 1.912c-20.786 0-40.899-1.994-59.415-5.943-33.509-7.148-61.149-20.338-82.152-39.202a143.82 143.82 0 0 1-2.932-2.723c-16.524-15.761-28.118-33.502-39.33-50.66-2.841-4.347-5.776-8.84-8.736-13.21-15.078-22.336-31.149-41.413-49.121-58.322a309.947 309.947 0 0 0-7.051-6.43c-43.504-38.48-102.119-70.335-169.506-92.119C57.092 77.611-25.964 67.306-97.223 74.212c-48.577 4.806-95.485 22.828-119.5 45.916-16.694 16.048-21.701 34.018-14.485 51.969l-.266.044c-3.768-9.374-4.268-18.727-1.484-27.799 2.577-8.398 7.961-16.576 16.007-24.31 12.195-11.725 30.423-22.305 52.715-30.598 20.706-7.704 44.49-13.17 66.972-15.394 37.442-3.63 77.895-2.57 120.234 3.15 38.206 5.16 76.494 13.868 113.806 25.881 67.426 21.798 126.074 53.67 169.605 92.173a316.973 316.973 0 0 1 7.054 6.433c17.983 16.918 34.062 36.005 49.146 58.351 2.96 4.369 5.897 8.865 8.736 13.212 11.206 17.149 22.795 34.882 39.305 50.63.956.912 1.94 1.827 2.929 2.719 39.22 35.23 103.716 50.962 176.951 43.162 69.714-7.425 131.462-34.388 182.674-59.785a1516.539 1516.539 0 0 0 16.543-8.35c14.603-7.473 28.964-15.124 44.166-23.228 44.221-23.568 89.951-47.939 141.256-67.199a584.463 584.463 0 0 1 58.779-18.497 586.823 586.823 0 0 1 58.56-11.887c37.65-5.666 76.06-7.852 117.42-6.681 35.99.948 78.24 3.728 118.73 17.151 37.11 12.362 69.65 31.081 101.12 49.182 7.23 4.163 14.71 8.466 21.98 12.529 79.14 44.232 160.64 94.198 242.23 148.51l-.2.122Z"/><path d="M1690.85 399.977c-81.99-55.679-159.89-104.84-238.15-150.294-7.47-4.336-14.82-8.765-22.61-13.454-30.43-18.329-61.89-37.281-98.41-49.288-40.95-13.402-85.01-14.518-118.82-13.991-80.88 1.094-156.54 15.521-231.299 44.105-44.856 17.233-86.271 37.927-126.324 57.942-21.049 10.519-40.931 20.452-61.206 29.88a1220.056 1220.056 0 0 1-17.09 7.802c-33.968 15.157-62.768 26.044-90.638 34.264-33.828 9.976-65.455 15.702-96.689 17.504-16.048.926-31.987.752-47.373-.517-16.29-1.344-31.97-3.922-46.604-7.661-32.435-8.288-59.417-22.062-80.201-40.944a161.011 161.011 0 0 1-2.91-2.726c-16.246-15.6-28.131-33.002-39.626-49.831-3.067-4.49-6.238-9.133-9.429-13.648-15.71-22.287-32.143-41.206-50.239-57.836a334.36 334.36 0 0 0-7.147-6.372c-44.084-38.126-103.147-69.539-170.803-90.84C72.836 74.493 8.439 64.278-50.614 64.278c-16.694 0-32.948.815-48.626 2.466-47.991 5.152-94.606 23.24-118.761 46.079-17.048 16.123-22.663 34.215-16.235 52.32l-.269.038c-3.356-9.447-3.496-18.864-.418-27.989 2.852-8.458 8.469-16.691 16.691-24.466 12.323-11.652 30.465-22.189 52.471-30.473 20.772-7.82 43.76-13.243 66.472-15.68 37.398-3.94 77.895-3.188 120.363 2.23 38.296 4.883 76.763 13.332 114.329 25.11 67.694 21.314 126.793 52.744 170.904 90.893a317.565 317.565 0 0 1 7.153 6.376c18.104 16.638 34.546 35.565 50.264 57.864 3.191 4.514 6.365 9.157 9.431 13.649 11.49 16.822 23.37 34.217 39.602 49.804.951.912 1.929 1.829 2.907 2.723 38.866 35.308 102.257 53.184 173.928 49.049 72.523-4.184 138.135-29.848 187.195-51.739 5.479-2.449 11.069-5 17.087-7.8 20.272-9.424 40.151-19.359 61.199-29.876 40.057-20.017 81.478-40.717 126.35-57.955 38.497-14.716 76.267-25.441 115.477-32.789 37.82-7.087 75.75-10.796 115.96-11.34 22.94-.357 41.66.263 58.91 1.95 22.27 2.179 41.91 6.124 60.04 12.06 36.55 12.018 68.03 30.98 98.48 49.318 7.78 4.689 15.13 9.116 22.6 13.453 78.27 45.455 156.17 94.62 238.17 150.302l-.21.122Z"/><path d="M1687.94 398.334c-81.24-56.289-157.81-106.035-234.1-152.089-7.55-4.556-14.99-9.25-22.87-14.219-29.51-18.619-60.04-37.874-96.1-49.58-41.29-13.339-85.31-12.805-119.03-10.852-76.33 4.269-150.91 21.007-228 51.168-37.983 14.932-74.147 32.02-109.121 48.547-27.647 13.064-53.759 25.405-80.547 36.684a1050.582 1050.582 0 0 1-17.636 7.25c-34.035 13.603-64.628 23.648-93.529 30.71-34.606 8.457-66.769 12.714-98.327 13.01-16.057.15-31.932-.77-47.175-2.738-15.98-2.064-31.358-5.29-45.708-9.592-31.322-9.39-57.651-23.75-78.253-42.684-.967-.894-1.94-1.813-2.888-2.732-15.941-15.409-28.084-32.444-39.829-48.917-3.323-4.66-6.761-9.482-10.215-14.168-16.353-22.246-33.152-41.004-51.355-57.35a332.945 332.945 0 0 0-7.246-6.315c-44.664-37.773-104.178-68.742-172.103-89.56C53.27 60.296-30.25 51.19-101.262 59.267c-47.37 5.482-93.674 23.616-117.964 46.196-17.433 16.209-23.671 34.437-18.043 52.717l-.27.033c-2.935-9.529-2.709-19.019.674-28.206 3.14-8.529 8.997-16.82 17.411-24.643 12.443-11.568 30.495-22.052 52.204-30.32 20.533-7.818 43.333-13.333 65.939-15.95 37.356-4.247 77.895-3.808 120.49 1.31 38.389 4.611 77.029 12.802 114.847 24.344 67.967 20.829 127.514 51.817 172.202 89.613a323.547 323.547 0 0 1 7.252 6.318c18.214 16.354 35.018 35.121 51.379 57.376 3.457 4.687 6.893 9.508 10.218 14.17 11.739 16.466 23.877 33.494 39.807 48.893a180.54 180.54 0 0 0 2.886 2.728c39.274 36.094 99.97 55.608 170.904 54.939 57.558-.54 118.476-14.425 191.713-43.693a1060.748 1060.748 0 0 0 17.631-7.249c26.78-11.278 52.891-23.614 80.534-36.678 34.979-16.529 71.149-33.621 109.143-48.557 38.865-15.207 76.035-26.718 113.615-35.194 38.08-8.586 75.53-13.82 114.5-15.999 33.77-1.957 77.83-2.489 119.18 10.871 36.11 11.72 66.65 30.983 96.18 49.611 7.88 4.969 15.32 9.661 22.86 14.216 76.29 46.055 152.87 95.805 234.11 152.097l-.2.124Z"/><path d="M1685.02 396.69c-80.48-56.9-155.72-107.236-230.03-153.882-7.54-4.735-14.99-9.656-22.88-14.866-28.68-18.951-58.34-38.548-94.06-49.989-41.68-13.29-85.62-11.103-119.24-7.712-71.82 7.102-143.21 25.606-224.689 58.231-30.557 12.292-60.42 25.776-89.299 38.815-35.076 15.837-68.206 30.797-102.509 43.826a924.874 924.874 0 0 1-18.181 6.7c-34.645 12.33-66.183 21.212-96.42 27.152-16.936 3.328-33.655 5.738-49.692 7.166-17.107 1.521-34.021 1.976-50.273 1.352-32.973-1.267-63.855-6.813-91.786-16.483-30.165-10.444-55.837-25.389-76.302-44.422a232.47 232.47 0 0 1-2.868-2.735c-15.601-15.183-27.962-31.813-39.913-47.894-3.619-4.868-7.359-9.902-11.121-14.8-17.013-22.209-34.177-40.808-52.473-56.863a335.855 335.855 0 0 0-7.346-6.257c-45.243-37.421-105.205-67.948-173.4-88.28C51.362 51.642-32.387 43.136-103.28 51.797c-75.908 9.418-149.877 50.108-137.016 99.426l-.272.028c-3.218-12.337-1.333-24.491 5.6-36.127 6.332-10.627 16.722-20.629 30.883-29.724 13.165-8.457 28.961-15.758 46.944-21.702 17.104-5.652 35.71-9.828 53.806-12.073 37.313-4.558 77.895-4.428 120.619.39 38.483 4.338 77.299 12.27 115.37 23.578 68.233 20.346 128.231 50.89 173.501 88.331a333.96 333.96 0 0 1 7.351 6.261c18.305 16.062 35.477 34.672 52.498 56.889 3.762 4.898 7.503 9.932 11.122 14.802 11.948 16.076 24.303 32.699 39.895 47.873.94.913 1.902 1.834 2.864 2.733 39.332 36.579 98.953 58.179 167.879 60.829 58.351 2.24 122.54-9.419 196.233-35.648a926.663 926.663 0 0 0 18.175-6.698c34.296-13.026 67.42-27.984 102.49-43.819 28.882-13.041 58.748-26.527 89.311-38.82 81.507-32.639 152.937-51.15 224.787-58.258 22.6-2.278 41.3-3.007 58.88-2.29 22.46.915 42.26 4.192 60.53 10.019 35.76 11.453 65.44 31.061 94.14 50.023 7.88 5.209 15.33 10.129 22.87 14.863 74.32 46.649 149.56 96.987 230.04 153.891l-.2.116Z"/><path d="M1682.11 395.051c-79.71-57.52-153.63-108.442-225.97-155.677-7.49-4.887-14.89-10.006-22.72-15.429-27.91-19.314-56.76-39.287-92.18-50.482-42.59-13.402-88.58-9.029-119.46-4.574-83.83 11.943-158.95 39.709-221.38 65.298-22.433 9.234-44.813 19.016-66.459 28.475-43.422 18.976-84.433 36.899-127.484 51.575a847.496 847.496 0 0 1-18.725 6.151c-35.32 11.119-67.804 18.837-99.307 23.592-35.714 5.391-69.896 6.747-101.606 4.028-32.574-2.794-63.089-9.738-90.69-20.641-28.95-11.434-53.965-26.962-74.355-46.154a245.07 245.07 0 0 1-2.847-2.74c-15.213-14.904-27.728-31.078-39.833-46.719-3.965-5.126-8.068-10.425-12.19-15.583-17.931-22.488-34.96-40.401-53.589-56.377a338.533 338.533 0 0 0-7.445-6.2c-45.828-37.064-106.241-67.148-174.705-87C49.45 42.993-34.529 35.084-105.302 44.33c-76.18 10.083-148.637 50.22-138.024 99.939l-.272.023c-2.633-12.335-.355-24.477 6.768-36.087 6.529-10.638 16.98-20.65 31.066-29.755 13.136-8.492 28.849-15.847 46.706-21.866 17.002-5.73 35.573-10.027 53.701-12.427 37.272-4.868 77.896-5.046 120.745-.53 38.577 4.065 77.569 11.74 115.893 22.809 68.505 19.861 128.95 49.963 174.801 87.05a349.136 349.136 0 0 1 7.45 6.204c18.64 15.983 35.675 33.906 53.614 56.403 4.122 5.157 8.225 10.458 12.19 15.584 12.102 15.636 24.614 31.804 39.816 46.702.937.917 1.893 1.837 2.844 2.738 39.638 37.307 98.184 61.001 164.856 66.718 59.797 5.128 125.464-3.902 200.757-27.603a839.796 839.796 0 0 0 18.717-6.148c43.039-14.673 84.045-32.592 127.458-51.566 21.646-9.46 44.029-19.243 66.466-28.479 41.98-17.205 76.9-29.917 109.9-40.004 38.84-11.873 75.33-20.154 111.57-25.317 22.08-3.186 41.34-4.629 58.86-4.409 22.55.282 42.43 3.224 60.78 8.997 35.46 11.209 64.34 31.194 92.26 50.521 7.83 5.42 15.23 10.539 22.71 15.423 72.35 47.237 146.27 98.162 225.99 155.685l-.21.116Z"/><path d="M1679.2 393.407c-78.95-58.143-151.54-109.652-221.92-157.473-7.38-5.015-14.68-10.312-22.42-15.921-27.17-19.702-55.26-40.076-90.44-51.045-43.05-13.37-88.91-7.223-119.67-1.434-75.95 14.172-143.69 41.157-218.06 72.362-13.417 5.649-26.984 11.479-40.106 17.119-50.464 21.69-102.644 44.117-155.985 60.341a779.12 779.12 0 0 1-19.272 5.6c-35.56 9.817-69.943 16.555-102.196 20.029-36.538 3.936-71.273 3.781-103.249-.458-32.119-4.258-62.262-12.602-89.593-24.8-27.659-12.343-52.023-28.454-72.413-47.883a280.933 280.933 0 0 1-2.825-2.744c-14.754-14.555-27.349-30.202-39.528-45.333-4.388-5.452-8.925-11.089-13.484-16.574-18.632-22.466-36.016-40.225-54.708-55.891a347.15 347.15 0 0 0-7.543-6.142c-46.4-36.717-107.258-66.358-175.997-85.725C47.541 34.34-36.667 27.031-107.324 36.858c-73.763 10.37-147.558 49.1-139.036 100.452l-.272.017c-2.048-12.335.624-24.462 7.936-36.046 6.724-10.65 17.238-20.67 31.248-29.787 25.848-16.816 62.319-29.503 100.063-34.809 37.228-5.177 77.895-5.665 120.875-1.45 38.67 3.793 77.834 11.208 116.411 22.04 68.777 19.377 129.671 49.038 176.101 85.771a350.668 350.668 0 0 1 7.549 6.146c18.7 15.675 36.092 33.441 54.73 55.915 4.558 5.487 9.098 11.124 13.487 16.576 12.176 15.128 24.768 30.771 39.513 45.32.929.917 1.88 1.839 2.823 2.742 40.794 38.872 96.755 63.98 161.83 72.609 60.259 7.99 129.322 1.41 205.277-19.558a781.335 781.335 0 0 0 19.261-5.597c53.323-16.218 105.497-38.642 155.95-60.328 13.122-5.641 26.689-11.471 40.108-17.12 32.55-13.66 70.43-29.328 108.03-42.409 39.33-13.682 75.34-23.487 110.11-29.974 21.88-4.119 41.13-6.256 58.84-6.531 22.33-.349 42.86 2.336 61.02 7.976 15.76 4.913 31.62 12.246 48.49 22.418 14.9 8.982 28.7 18.99 42.04 28.667 7.73 5.608 15.04 10.905 22.42 15.917 70.38 47.823 142.97 99.334 221.92 157.478l-.2.114Z"/><path d="M1676.28 391.765c-78.17-58.77-149.43-110.867-217.86-159.266-7.24-5.124-14.42-10.582-22.02-16.358-26.46-20.112-53.82-40.91-88.8-51.662-32.69-10.017-71.9-9.46-119.88 1.704-67.08 15.522-127.05 41.484-190.54 68.972-7.91 3.424-16.08 6.962-24.22 10.456-3.18 1.372-6.37 2.747-9.55 4.121-60.498 26.091-123.051 53.071-188.671 70.748a733.237 733.237 0 0 1-19.816 5.05c-36.339 8.702-71.693 14.242-105.076 16.462-37.381 2.486-72.674.823-104.891-4.943-31.619-5.66-61.391-15.403-88.489-28.96-26.266-13.14-49.976-29.831-70.473-49.612a345.226 345.226 0 0 1-2.803-2.749c-14.194-14.099-26.747-29.115-38.89-43.636-4.916-5.881-10.003-11.962-15.111-17.881-19.352-22.45-37.088-40.056-55.824-55.405a354.056 354.056 0 0 0-7.642-6.085c-46.988-36.36-108.296-65.56-177.305-84.443-82.784-22.589-167.225-29.3-237.764-18.89-72.407 10.773-146.098 49.82-140.044 100.966l-.275.014c-1.459-12.337 1.602-24.451 9.104-36.005 6.923-10.662 17.497-20.694 31.432-29.817 25.738-16.852 62.083-29.727 99.72-35.327 37.186-5.487 77.895-6.286 121-2.37C50.357 30.365 89.7 37.521 128.53 48.117c69.047 18.894 130.394 48.11 177.401 84.49a357.034 357.034 0 0 1 7.648 6.088c18.744 15.358 36.491 32.969 55.848 55.427 5.111 5.92 10.195 12.003 15.114 17.884 12.138 14.517 24.691 29.529 38.879 43.623.926.919 1.866 1.843 2.8 2.747 41.679 40.222 96.593 67.365 158.808 78.499 61.416 10.992 132.001 7.117 209.797-11.514a739.01 739.01 0 0 0 19.805-5.046c65.598-17.67 128.141-44.645 188.621-70.732 3.19-1.375 6.37-2.749 9.56-4.121 8.13-3.494 16.3-7.033 24.21-10.454 63.5-27.494 123.49-53.463 190.6-68.991 21.68-5.045 40.92-7.873 58.83-8.653 22.42-.974 43.03 1.367 61.27 6.955 15.67 4.816 31.33 12.182 47.89 22.519 14.6 9.122 28.02 19.323 41 29.189 7.6 5.774 14.78 11.23 22.02 16.352 68.43 48.402 139.69 100.5 217.86 159.272l-.21.113Z"/><path d="M1673.37 390.122c-71.35-54.765-143.28-108.954-213.8-161.061-7.18-5.275-14.29-10.941-21.83-16.939-24.5-19.511-52.26-41.624-86.96-52.136-33.07-10-72.35-8.415-120.09 4.842-56.77 15.711-107.01 38.813-160.2 63.271-16.65 7.658-33.88 15.58-51.25 23.222-30.323 13.367-63.126 27.511-97.512 40.393-36.826 13.798-70.47 24.226-102.855 31.885a697.524 697.524 0 0 1-20.36 4.499c-37.109 7.604-73.425 11.932-107.937 12.863-38.206 1.028-74.056-2.13-106.56-9.395-60.022-13.581-112.482-41.997-155.92-84.46-.926-.906-1.86-1.834-2.781-2.752-13.473-13.477-25.806-27.695-37.732-41.445-5.615-6.472-11.419-13.165-17.258-19.679-20.088-22.444-38.181-39.895-56.939-54.918a361.387 361.387 0 0 0-7.741-6.027c-47.56-36.01-109.319-64.766-178.597-83.165-83.32-22.084-167.989-28.193-238.412-17.204-72.847 11.433-144.691 49.961-141.056 101.481l-.275.007c-.871-12.341 2.586-24.44 10.273-35.965 7.122-10.676 17.757-20.72 31.613-29.849 13.053-8.602 28.524-16.123 45.982-22.356 16.95-6.05 34.914-10.588 53.394-13.489 37.145-5.795 77.898-6.904 121.13-3.29 38.857 3.247 78.374 10.144 117.456 20.502 69.319 18.41 131.113 47.183 178.701 83.211a368.405 368.405 0 0 1 7.746 6.031c18.767 15.031 36.868 32.489 56.964 54.941 5.84 6.515 11.643 13.208 17.258 19.682 11.926 13.748 24.256 27.964 37.724 41.436.918.92 1.855 1.846 2.779 2.752 43.405 42.43 95.817 70.823 155.782 84.391 61.767 13.804 135.878 12.605 214.32-3.471a703.383 703.383 0 0 0 20.35-4.495c72.407-17.121 138.656-45.084 200.303-72.259 17.38-7.641 34.6-15.562 51.25-23.22 53.2-24.463 103.45-47.57 160.25-63.289 47.81-13.278 87.17-14.862 120.32-4.84 15.54 4.708 30.96 12.088 47.16 22.558 14.29 9.233 27.31 19.602 39.9 29.627 7.53 5.998 14.64 11.663 21.82 16.934 70.52 52.108 142.45 106.298 213.8 161.065l-.21.111Z"/><path d="M1670.46 388.482a29066.124 29066.124 0 0 0-209.74-162.857c-6.96-5.332-13.86-11.098-21.17-17.202-23.89-19.966-50.98-42.597-85.58-52.931-33.47-9.982-72.82-7.371-120.31 7.98-49.76 16.06-95.48 38.736-139.69 60.668-22.17 10.997-45.09 22.368-68.45 32.89-36.867 16.625-67.887 29.307-97.623 39.913-36.667 13.078-70.976 22.818-104.884 29.776a671.3 671.3 0 0 1-20.906 3.948c-36.01 6.199-71.372 9.337-105.2 9.339-1.88 0-3.748-.011-5.617-.03-39.11-.404-75.515-5.079-108.206-13.892-15.779-4.277-31.231-9.706-45.925-16.138a325.874 325.874 0 0 1-40.341-21.162c-23.311-14.386-45.103-31.74-66.614-53.048a512.308 512.308 0 0 1-2.759-2.757c-12.482-12.572-24.29-25.715-35.708-38.425-6.593-7.336-13.408-14.923-20.272-22.308-21.135-22.753-39.039-39.542-58.058-54.432a364.014 364.014 0 0 0-7.84-5.97c-48.137-35.653-110.343-63.966-179.89-81.882C41.824 8.385-43.076 2.876-113.384 14.446c-71.482 11.796-143.232 50.618-142.065 101.993l-.274.001c-.544-23.93 14.408-46.684 43.237-65.803 13.031-8.642 28.42-16.217 45.743-22.52 16.857-6.131 34.785-10.789 53.29-13.842 37.101-6.106 77.898-7.523 121.256-4.211 38.95 2.975 78.643 9.614 117.975 19.734 69.591 17.928 131.834 46.259 180.001 81.933a376.387 376.387 0 0 1 7.846 5.973c19.027 14.899 36.938 31.693 58.079 54.455 6.864 7.387 13.682 14.974 20.272 22.31 11.418 12.708 23.224 25.849 35.702 38.417.915.922 1.833 1.841 2.757 2.756 45.71 45.28 95.677 74.811 152.756 90.282 79.058 21.313 162.644 14.252 218.844 4.575a669.207 669.207 0 0 0 20.893-3.946c77.986-16.004 149.149-45.637 202.432-69.664 23.36-10.519 46.28-21.89 68.44-32.885 44.22-21.935 89.95-44.619 139.73-60.686 21.25-6.869 40.49-11.087 58.8-12.893 22.58-2.227 43.36-.575 61.75 4.912 15.5 4.628 30.78 12.067 46.71 22.741 14.04 9.405 26.72 19.997 38.98 30.243 7.31 6.102 14.2 11.866 21.16 17.194a29066.124 29066.124 0 0 1 209.74 162.857l-.21.11Z"/><path d="m1667.54 386.839-205.68-164.651c-6.71-5.377-13.39-11.228-20.45-17.421-23.31-20.438-49.72-43.603-84.26-53.766-33.4-9.827-73.95-6.087-120.52 11.119-44.78 16.539-85.62 38.534-125.11 59.805-25.75 13.866-52.37 28.202-79.72 40.819-82.205 37.925-154.049 60.324-226.093 70.494-29.888 4.218-59.371 6.341-87.965 6.341-8.667 0-17.246-.195-25.735-.585-40.033-1.841-76.994-8.029-109.852-18.389-30.453-9.604-58.313-23.161-85.161-41.449-21.44-14.602-41.992-32.011-64.677-54.787-11.973-12.02-23.567-24.508-34.779-36.586-25.375-27.33-51.613-55.591-84.098-80.463-49.827-38.15-115.229-68.066-189.137-86.517C39.919-.265-45.211-5.177-115.404 6.973c-67.959 11.764-141.718 48.859-143.076 102.508l-.274-.003c.607-23.98 16.026-46.732 44.589-65.795 25.826-17.236 60.874-30.333 98.689-36.878C-78.416.39-37.575-1.337 5.907 1.673c39.044 2.702 78.912 9.085 118.497 18.968 36.571 9.13 71.303 21.147 103.235 35.72 32.199 14.696 61.138 31.802 86.01 50.844 32.498 24.881 58.745 53.149 84.125 80.486 11.212 12.076 22.806 24.562 34.776 36.58 33.098 33.232 80.028 74.194 149.729 96.174 79.934 25.205 165.587 20.774 223.367 12.619 72.009-10.164 143.82-32.554 225.994-70.464 27.34-12.613 53.96-26.949 79.7-40.811 39.5-21.275 80.35-43.275 125.15-59.823 46.65-17.235 87.29-20.978 120.78-11.125 15.46 4.551 30.6 12.054 46.28 22.943 13.8 9.584 26.15 20.41 38.08 30.879 7.07 6.192 13.74 12.04 20.45 17.416l205.68 164.65-.22.11Z"/><path d="M1665.89 374.18c-52.38-45.844-97.32-83.045-141.42-117.07a2283.105 2283.105 0 0 0-64.99-48.355c-6.57-4.707-13.08-9.712-19.97-15.013-17.31-13.322-35.21-27.096-55.82-37.319-11.06-5.499-21.71-9.437-32.55-12.037-33.29-8.062-72.34-2.732-116.07 15.844-22.64 9.598-43.25 20.522-60.43 29.941-18.18 9.971-36.12 20.968-53.46 31.602-24.94 15.286-50.72 31.091-78.44 44.666-16.86 8.284-33.95 15.687-50.808 22.003-33.719 12.637-69.91 23.05-107.569 30.949-23.267 4.826-46.647 8.475-69.486 10.842-19.684 2.032-39.404 3.205-58.615 3.486-28.753.421-56.766-1.188-83.263-4.787-28.172-3.827-54.834-9.937-79.241-18.16-21.765-7.333-42.323-16.565-62.848-28.228-38.246-21.714-68.752-46.822-91.055-66.27-10.956-9.599-21.654-19.388-32.001-28.854-29.791-27.262-57.931-53.011-93.144-75.947-28.719-18.584-61.487-34.621-97.4-47.67-27.599-10.027-57.615-18.228-89.215-24.375a718.84 718.84 0 0 0-22.789-4.047c-32.69-5.252-69.492-8.672-109.38-10.166-40.214-1.54-75.007-.207-106.359 4.08-17.724 2.406-34.897 6.18-51.047 11.215-57.016 17.779-93.628 47.624-97.937 79.838l-.343-.019c1.149-8.588 4.521-17.047 10.019-25.144 5.224-7.692 12.399-15.11 21.325-22.05 16.864-13.107 39.959-24.457 66.785-32.822 16.175-5.044 33.375-8.823 51.127-11.232 31.385-4.29 66.205-5.626 106.452-4.083 39.91 1.493 76.73 4.916 109.443 10.172a719.19 719.19 0 0 1 22.806 4.05c31.624 6.151 61.665 14.36 89.286 24.395 35.938 13.057 68.733 29.108 97.466 47.704 35.235 22.95 63.381 48.707 93.183 75.976 10.343 9.466 21.041 19.253 31.995 28.85 22.292 19.439 52.784 44.535 91.009 66.235 20.503 11.65 41.039 20.874 62.778 28.199 47.769 16.093 102.386 23.805 162.337 22.922 19.194-.281 38.9-1.454 58.568-3.485 22.822-2.367 46.186-6.011 69.434-10.834 37.637-7.894 73.806-18.3 107.503-30.93 16.844-6.311 33.924-13.71 50.774-21.987 27.7-13.568 53.48-29.37 78.4-44.651 17.36-10.635 35.29-21.635 53.49-31.611 17.18-9.424 37.8-20.351 60.45-29.956 19.48-8.271 38.33-13.985 56.05-16.984 21.76-3.685 42.06-3.308 60.34 1.119 10.88 2.609 21.56 6.557 32.65 12.068 20.63 10.239 38.54 24.022 55.87 37.353 6.89 5.298 13.39 10.304 19.95 15.007 21.73 15.56 43.59 31.83 65.01 48.363 44.1 34.028 89.05 71.232 141.43 117.08l-.28.127Z"/><path d="M1664.23 361.52c-48.56-46.62-94.14-85.631-139.33-119.263a1181.663 1181.663 0 0 0-67.81-46.935c-6.09-3.904-12.1-7.962-18.46-12.257-19.06-12.861-38.77-26.16-60.84-35.362-11.15-4.666-21.83-7.915-32.66-9.933-41.47-7.732-83.59 6.916-111.63 20.566-19.86 9.642-38 20.544-56.38 31.799-16.08 9.851-31.22 20.449-47.24 31.667-23.78 16.652-48.37 33.871-76.19 48.329a382.925 382.925 0 0 1-51.22 22.168c-32.553 11.333-68.197 20.133-108.972 26.906a710.595 710.595 0 0 1-69.459 8.022c-19.635 1.277-39.234 1.734-58.255 1.352-28.3-.561-55.961-3.085-82.221-7.5-27.579-4.638-53.894-11.415-78.211-20.142-21.306-7.645-41.877-17.13-62.892-28.996-38.164-21.521-70.857-45.379-95.073-63.761-8.964-6.805-17.785-13.651-26.317-20.274-33.98-26.375-66.074-51.29-105.09-72.279-29.159-15.687-61.896-28.951-97.296-39.423-26.785-7.924-55.175-13.86-86.788-18.15a736.953 736.953 0 0 0-22.059-2.647c-32.24-3.36-66.647-4.63-108.277-5.944-30.008-.995-69.291-1.65-107.03 2.153-17.873 1.767-35.15 4.836-51.355 9.119-57.054 15.082-95.757 41.429-103.534 70.481l-.407-.043c2.061-7.704 6.238-15.26 12.408-22.46 5.88-6.861 13.608-13.439 22.965-19.557 17.782-11.622 41.437-21.535 68.409-28.663 16.235-4.292 33.545-7.366 51.448-9.137 37.775-3.809 77.088-3.151 107.115-2.156 41.644 1.314 76.063 2.585 108.324 5.945 7.346.77 14.774 1.661 22.078 2.65 31.643 4.294 60.061 10.236 86.876 18.168 35.435 10.483 68.2 23.758 97.389 39.46 39.044 21.005 71.152 45.926 105.142 72.312 8.53 6.621 17.351 13.468 26.315 20.271 24.21 18.374 56.89 42.224 95.032 63.734 20.99 11.854 41.539 21.329 62.82 28.965 47.815 17.16 101.731 26.449 160.242 27.609 19.006.38 38.585-.075 58.201-1.352a709.559 709.559 0 0 0 69.395-8.015c40.742-6.766 76.357-15.559 108.877-26.882a381.724 381.724 0 0 0 51.16-22.141c27.8-14.446 52.38-31.658 76.15-48.302 16.03-11.223 31.16-21.822 47.26-31.679 18.38-11.261 36.53-22.167 56.42-31.82 18.17-8.849 36.1-15.215 53.28-18.924 20.84-4.497 40.59-5.063 58.71-1.685 10.87 2.027 21.59 5.286 32.77 9.966 22.11 9.219 41.84 22.53 60.91 35.402 6.36 4.293 12.38 8.349 18.46 12.252a1178.176 1178.176 0 0 1 67.82 46.951c45.21 33.64 90.8 72.658 139.36 119.289l-.34.146Z"/><path d="M1662.57 348.858c-45.45-48.028-90.34-87.756-137.25-121.453a817.877 817.877 0 0 0-70.61-45.515c-5.16-2.967-10.48-6.115-15.63-9.158-21.24-12.574-43.21-25.575-67.2-33.748-11.25-3.862-21.97-6.424-32.75-7.831-41.38-5.402-81.13 10.77-107.18 25.286-17.67 9.799-33.81 20.905-49.42 31.647l-2.93 2.012c-14.17 9.745-27.47 20.433-41.55 31.75-22.42 18.021-45.61 36.653-73.42 51.974-16.18 8.98-33.55 16.494-51.63 22.333-31.516 10.181-66.592 17.446-110.376 22.863-22.641 2.801-45.999 4.551-69.429 5.2-19.585.521-39.063.259-57.898-.781-57.021-3.136-110.299-14.016-158.357-32.336-20.775-7.921-41.36-17.655-62.929-29.765-36.502-20.451-68.967-41.472-99.088-61.249-4.04-2.651-8.035-5.285-12.001-7.898-41.14-27.102-79.997-52.701-125.664-72.404-29.813-12.863-62.517-23.352-97.2-31.179-25.463-5.744-53.059-9.645-84.359-11.925-7.054-.51-14.229-.93-21.327-1.248-17.857-.785-36.796-.912-56.848-1.046-16.106-.108-32.76-.22-50.333-.674-33.94-.954-72.407-2.033-107.703.226-18.211 1.166-35.592 3.53-51.663 7.026-57.032 12.41-97.829 35.263-109.132 61.13l-.464-.081c2.979-6.821 7.958-13.474 14.798-19.775 6.54-6.025 14.817-11.767 24.6-17.064 18.711-10.13 42.932-18.6 70.039-24.5 16.106-3.504 33.523-5.873 51.77-7.04 35.331-2.262 73.817-1.18 107.772-.228 17.562.454 34.215.567 50.316.675 20.06.134 39.005.262 56.878 1.048 7.104.319 14.287.739 21.347 1.25 31.338 2.28 58.967 6.187 84.466 11.94 34.723 7.835 67.463 18.337 97.31 31.214 45.707 19.72 84.584 45.332 125.741 72.446 3.965 2.613 7.963 5.245 12 7.897 30.116 19.775 62.57 40.79 99.061 61.234 21.547 12.096 42.11 21.822 62.861 29.732 47.994 18.298 101.204 29.162 158.151 32.294 18.813 1.039 38.271 1.3 57.834.779 23.405-.648 46.742-2.397 69.358-5.194 43.74-5.412 78.774-12.668 110.249-22.835 18.04-5.827 35.38-13.327 51.53-22.291 27.78-15.302 50.95-33.924 73.35-51.935 14.09-11.322 27.4-22.015 41.58-31.767l2.93-2.012c15.62-10.747 31.77-21.86 49.45-31.67 26.14-14.563 66.03-30.781 107.6-25.355 10.83 1.413 21.59 3.984 32.89 7.862 24.04 8.191 46.03 21.206 67.3 33.793 5.14 3.044 10.46 6.192 15.62 9.156a819.858 819.858 0 0 1 70.65 45.54c46.92 33.711 91.83 73.453 137.29 121.497l-.4.153Z"/><path d="M1660.91 336.195c-41.73-48.754-87.2-90.354-135.15-123.641a643.158 643.158 0 0 0-73.42-44.093c-3.67-1.882-7.43-3.836-11.06-5.726-24.01-12.481-48.84-25.39-75.29-32.466-11.35-3.07-22.09-4.944-32.85-5.731-41.26-3.019-78.65 14.649-102.75 30.003-14.96 9.486-28.47 20.034-41.53 30.236-2.26 1.766-4.51 3.528-6.78 5.283-12.42 9.642-24.04 20.414-36.33 31.817-20.91 19.385-42.53 39.43-70.17 55.64-16.24 9.518-33.26 16.877-52.05 22.5-39.287 11.76-78.554 16.112-111.78 18.821-22.473 1.83-45.82 2.632-69.398 2.377-19.525-.235-38.885-1.216-57.538-2.914-55.31-5.022-107.89-17.48-156.28-37.032-20.135-8.132-40.731-18.12-62.971-30.532-22.465-12.507-43.399-24.543-63.647-36.183-13.759-7.911-26.757-15.383-39.45-22.552-47.981-27.1-91.93-50.927-143.919-68.054-30.454-10.031-63.125-17.748-97.107-22.937-24.356-3.72-50.39-5.53-81.929-5.703-6.804-.032-13.735.019-20.597.151-10.423.215-21.206.662-32.619 1.138-21.901.912-46.73 1.946-73.474 1.367-10.184-.221-20.574-.534-30.623-.837-25.848-.779-52.575-1.584-77.756-.864-18.491.53-35.979 2.189-51.973 4.932-56.936 9.77-99.824 29.129-114.73 51.786l-.508-.134c3.902-5.933 9.684-11.681 17.183-17.086 7.203-5.191 16.03-10.094 26.23-14.572 19.657-8.628 44.441-15.657 71.677-20.33 16.032-2.75 33.559-4.415 52.091-4.945 25.208-.722 51.946.085 77.808.865 10.046.303 20.437.615 30.618.836 26.719.579 51.528-.453 73.419-1.364 11.418-.476 22.204-.924 32.638-1.139 6.87-.132 13.806-.183 20.618-.151 31.583.17 57.656 1.987 82.053 5.711 34.024 5.196 66.739 12.923 97.231 22.968 23.484 7.735 47.282 17.536 72.753 29.96 22.804 11.122 44.986 23.292 71.279 38.142 12.693 7.171 25.691 14.643 39.453 22.555 20.244 11.637 41.179 23.673 63.638 36.179 22.218 12.4 42.793 22.376 62.903 30.501 48.323 19.525 100.83 31.966 156.062 36.981 18.632 1.696 37.967 2.675 57.469 2.91 23.551.255 46.874-.545 69.319-2.375 33.185-2.704 72.399-7.051 111.617-18.79 18.74-5.607 35.72-12.947 51.91-22.441 27.6-16.182 49.2-36.211 70.09-55.58 12.3-11.41 23.92-22.187 36.36-31.84 2.26-1.755 4.52-3.517 6.78-5.281 13.07-10.209 26.58-20.764 41.57-30.262 15.67-9.989 31.76-17.674 47.8-22.84 19-6.12 37.64-8.563 55.39-7.263 10.81.791 21.61 2.674 33.01 5.755 26.51 7.096 51.37 20.02 75.41 32.518 3.64 1.889 7.39 3.843 11.06 5.724a643.918 643.918 0 0 1 73.48 44.129c25.46 17.675 50.4 37.814 74.11 59.856 20.96 19.481 41.53 40.965 61.12 63.853l-.47.164Z"/><path d="M1659.25 323.529c-38.62-50.151-83.39-92.485-133.06-125.827-23.95-16.121-49.6-30.476-76.22-42.67l-3.81-1.743c-27.68-12.696-56.31-25.824-86.05-31.735-11.52-2.29-22.3-3.477-32.95-3.63-41.1-.589-76.15 18.556-98.31 34.719-13.04 9.455-24.62 19.819-35.82 29.841-2.76 2.479-5.63 5.041-8.45 7.537-10.77 9.506-20.77 20.315-31.36 31.759-19.27 20.817-39.19 42.341-66.69 59.429-15.91 9.887-33.07 17.301-52.46 22.67-38.192 10.574-76.975 13.351-113.194 14.777-22.333.878-45.672.728-69.368-.445-19.461-.993-38.698-2.693-57.178-5.049-53.427-6.798-105.31-20.836-154.2-41.726-19.579-8.364-39.601-18.31-63.006-31.299-44.482-24.618-77.513-41.957-107.098-56.22-58.844-28.367-103.755-45.056-150.166-55.804-31.072-7.195-63.71-12.14-97.013-14.698-23.105-1.775-47.626-1.616-79.503.519-6.532.443-13.215.964-19.865 1.551-6.282.563-12.663 1.208-19.421 1.89-24.949 2.518-53.229 5.373-85.595 4.84-17.06-.281-34.485-1.049-51.336-1.792-19.15-.843-38.953-1.717-57.727-1.835-18.824-.119-36.42.837-52.284 2.841-56.747 7.165-101.732 23.035-120.333 42.451l-.528-.204c4.832-5.045 11.416-9.888 19.569-14.397 7.87-4.354 17.241-8.417 27.854-12.079 20.616-7.115 45.969-12.703 73.317-16.156 15.908-2.008 33.542-2.967 52.41-2.848 18.791.118 38.604.991 57.764 1.837 16.845.742 34.262 1.511 51.308 1.792 32.308.531 60.558-2.32 85.48-4.835 6.76-.684 13.146-1.327 19.431-1.892 6.658-.587 13.347-1.108 19.885-1.553 31.926-2.136 56.488-2.297 79.643-.517 33.35 2.562 66.034 7.514 97.15 14.719 46.475 10.762 91.432 27.468 150.328 55.86 29.596 14.268 62.638 31.613 107.131 56.238 23.389 12.978 43.389 22.913 62.946 31.269 48.824 20.86 100.63 34.879 153.977 41.666 18.456 2.353 37.67 4.049 57.104 5.043 23.669 1.171 46.977 1.321 69.283.444 36.164-1.424 74.881-4.194 112.985-14.744 19.32-5.347 36.42-12.738 52.27-22.589 27.44-17.052 47.35-38.553 66.59-59.347 10.6-11.452 20.61-22.269 31.39-31.789 2.83-2.494 5.69-5.056 8.46-7.535 11.2-10.031 22.79-20.402 35.85-29.873 14.46-10.549 29.63-18.893 45.07-24.801 18.08-6.922 36.16-10.301 53.72-10.052 10.72.153 21.55 1.347 33.13 3.648 29.83 5.931 58.5 19.077 86.22 31.792 1.27.582 2.54 1.165 3.81 1.743 26.65 12.208 52.33 26.581 76.31 42.719 49.71 33.372 94.52 75.739 133.16 125.925l-.55.165Z"/><path d="M934.55 318.475c-1.541 0-3.061-.002-4.556-.007-22.218-.06-45.548-1.158-69.338-3.267-19.39-1.751-38.505-4.169-56.815-7.183-26.161-4.298-52.416-10.475-78.041-18.359-24.746-7.613-49.668-17.053-74.076-28.06-23.915-10.784-46.254-22.8-63.044-32.064-39.286-21.617-76.665-39.685-111.097-53.704-55.769-22.704-105.467-36.545-156.406-43.557-30.732-4.23-63.702-6.461-95.447-6.461l-1.473.001c-27.272.06-53.163 3.274-77.077 6.739-6.224.908-12.663 1.9-19.137 2.951-3.548.582-7.101 1.181-10.86 1.816-26.516 4.481-56.57 9.558-93.084 9.142-22.237-.255-44.949-1.715-66.914-3.129-14.182-.913-28.846-1.856-42.833-2.426-19.228-.783-36.923-.532-52.597.749-56.444 4.609-103.526 16.991-125.947 33.124l-.517-.287c11.5-8.274 28.799-15.438 51.415-21.294 21.6-5.592 47.522-9.733 74.961-11.973 15.716-1.283 33.457-1.537 52.729-.751 14 .57 28.673 1.514 42.86 2.428 21.952 1.413 44.65 2.874 66.857 3.127 36.42.416 66.422-4.654 92.894-9.127 3.762-.636 7.315-1.235 10.866-1.818 6.48-1.051 12.924-2.044 19.153-2.952 23.955-3.471 49.891-6.69 77.228-6.751 32.251-.071 65.812 2.167 97.068 6.47 26.29 3.62 51.778 8.949 77.915 16.29 25.172 7.071 50.92 16.01 78.714 27.327 34.46 14.029 71.866 32.111 111.176 53.742 16.777 9.258 39.099 21.266 62.99 32.038 49.528 22.334 100.633 37.929 151.894 46.353 18.286 3.01 37.376 5.424 56.739 7.174 23.759 2.106 47.057 3.204 69.244 3.261 34.719.091 75.036-.652 114.346-10.7 19.91-5.086 37.12-12.524 52.64-22.736 27.25-17.935 45.32-40.955 62.79-63.218 8.99-11.452 17.48-22.269 26.71-31.632 2.96-3 5.94-6.09 8.83-9.079 9.75-10.099 19.83-20.54 31.44-30.191 13.27-11.103 27.52-20.109 42.33-26.767 17.18-7.72 34.69-12.039 52.05-12.837 10.71-.493 21.59.01 33.24 1.541 31.17 4.089 62.06 15.969 93.6 28.827 27.49 11.211 54.86 25.495 79.14 41.309 26.96 17.515 52.3 38.064 75.31 61.073 20.49 20.499 39.26 43.064 55.79 67.069l-.63.174c-35.49-51.551-79.55-94.62-130.96-128.011-24.25-15.791-51.57-30.054-79.03-41.246-31.48-12.836-62.31-24.693-93.36-28.768-11.59-1.522-22.4-2.022-33.05-1.532-31.9 1.469-65.24 15.472-93.88 39.433-11.59 9.634-21.67 20.066-31.41 30.154-2.88 2.991-5.87 6.083-8.83 9.083-9.21 9.346-17.69 20.154-26.67 31.595-8.58 10.923-17.44 22.22-27.61 33.079-11.54 12.31-23.08 22.204-35.3 30.248-15.59 10.257-32.88 17.728-52.88 22.838-17.63 4.507-36.58 7.486-57.939 9.111-18.085 1.368-36.249 1.621-52.111 1.621Z"/><path d="M978.618 319.349c-14.012 0-27.472-.53-39.514-1.067-22.141-.986-45.46-3.034-69.308-6.088-19.307-2.508-38.302-5.642-56.455-9.318-49.709-10.045-98.786-26.765-150.034-51.113-22.349-10.617-43.418-22.041-63.078-32.83-38.812-21.238-77.532-38.459-115.089-51.186-55.235-18.718-106.915-28.669-162.639-31.315-31.75-1.508-65.232-.892-96.829 1.778-26.447 2.235-51.38 7.627-74.655 12.957a1725.529 1725.529 0 0 0-18.407 4.351c-1.596.389-3.206.784-4.839 1.183-26.807 6.575-57.14 14.014-96.068 14.014-.656 0-1.31-.002-1.973-.007-26.337-.169-53.226-2.553-79.233-4.861-10.31-.915-20.973-1.86-31.204-2.625-19.984-1.492-37.291-1.933-52.913-1.344-56.821 2.144-104.782 10.817-131.581 23.801l-.459-.382c13.249-6.418 32.405-11.99 55.392-16.114 22.611-4.056 49.099-6.747 76.601-7.784 15.667-.591 33.018-.15 53.045 1.345 10.242.766 20.907 1.712 31.22 2.625 25.983 2.305 52.847 4.687 79.135 4.856 39.739.258 70.566-7.305 97.761-13.975 1.629-.399 3.242-.795 4.839-1.185a1651.07 1651.07 0 0 1 18.42-4.352c23.314-5.341 48.294-10.741 74.812-12.982 31.646-2.674 65.183-3.291 96.986-1.782 27.614 1.311 53.943 4.407 80.489 9.461 27.34 5.207 54.309 12.372 82.449 21.91 37.604 12.745 76.373 29.986 115.227 51.246 19.651 10.785 40.706 22.202 63.037 32.808 51.179 24.315 100.181 41.011 149.811 51.04 18.125 3.669 37.095 6.799 56.375 9.304 23.814 3.05 47.101 5.097 69.209 6.08 37.203 1.656 76.782 2.506 115.712-6.657 20.49-4.823 37.83-12.307 53-22.882 27.03-18.836 43.86-44.53 58.71-67.199 7.47-11.406 14.52-22.18 22.31-31.364 2.81-3.313 5.64-6.738 8.37-10.05 8.55-10.362 17.39-21.076 27.86-31.083 12.11-11.657 25.44-21.325 39.6-28.736 16.27-8.511 33.21-13.768 50.36-15.621 10.72-1.159 21.64-1.344 33.37-.57 32.77 2.167 66.06 12.872 97.16 24.12 28.71 10.384 57.06 24.182 81.98 39.9 27.71 17.434 53.25 38.187 75.9 61.681 20.26 21.01 38.14 44.115 53.14 68.678l-.7.172c-31.9-52.209-76.46-97.229-128.88-130.193-24.86-15.688-53.16-29.46-81.81-39.824-31.03-11.221-64.23-21.9-96.87-24.058-11.66-.771-22.5-.586-33.15.565-31.67 3.421-63.44 19.099-89.46 44.148-10.45 9.985-19.28 20.689-27.83 31.041a968.218 968.218 0 0 1-8.37 10.055c-7.77 9.163-14.82 19.926-22.28 31.32-14.87 22.704-31.73 48.44-58.85 67.339-15.26 10.632-32.69 18.158-53.29 23.009-17.88 4.208-37.17 6.645-58.969 7.445-5.894.226-11.764.315-17.543.315Z"/><path d="M1006.28 321.236h-.6c-19.805-.032-39.247-1.569-57.467-3.141-22.107-1.907-45.413-4.907-69.274-8.912-19.22-3.261-38.093-7.115-56.093-11.452-47.722-11.481-94.732-29.212-147.948-55.805-19.164-9.575-38.024-19.884-56.265-29.853-2.281-1.248-4.565-2.494-6.848-3.74-39.014-21.233-79.077-37.609-119.075-48.67-54.77-15.145-110.008-21.384-168.871-19.075-32.275 1.267-65.727 4.73-96.738 10.015-24.469 4.171-46.271 10.863-72.235 19.177a3057.683 3057.683 0 0 0-17.68 5.75l-.38.125c-13.116 4.333-27.983 9.243-44.658 12.977-19.15 4.288-37.73 6.351-56.782 6.327-29.709-.047-60.028-3.554-89.346-6.948-7.184-.831-14.614-1.69-21.786-2.468-20.57-2.225-37.981-3.35-53.23-3.435-56.147-.314-106.167 4.964-137.23 14.477l-.357-.47c15.215-4.661 35.74-8.443 59.354-10.939 23.658-2.502 50.715-3.743 78.242-3.589 15.292.085 32.748 1.211 53.36 3.442 7.178.778 14.61 1.637 21.795 2.468 29.283 3.389 59.563 6.892 89.2 6.939h.4c42.393 0 74.69-10.667 100.659-19.244l.382-.126a2984.444 2984.444 0 0 1 17.686-5.752c26.008-8.328 47.849-15.031 72.394-19.214 31.064-5.296 64.57-8.764 96.901-10.033 28.804-1.13 55.974-.269 83.067 2.635 29.195 3.129 57.387 8.52 86.183 16.484 40.074 11.082 80.206 27.483 119.283 48.751 2.284 1.247 4.567 2.495 6.848 3.743 18.233 9.964 37.088 20.271 56.236 29.838 53.146 26.56 100.088 44.267 147.73 55.729 17.975 4.331 36.821 8.178 56.013 11.435 23.828 4.001 47.101 6.995 69.173 8.898 39.536 3.413 78.237 5.78 117.067-2.614 21.08-4.556 38.53-12.088 53.36-23.027 26.8-19.76 41.43-47.141 54.35-71.3 6.04-11.311 11.75-21.995 18.19-30.973a822.1 822.1 0 0 0 7.37-10.485c7.52-10.806 15.3-21.979 24.83-32.513 10.97-12.217 23.38-22.55 36.86-30.71 15.37-9.301 31.74-15.492 48.68-18.4 10.5-1.802 21.21-2.68 32.73-2.68.25 0 .5 0 .75.002 35.8.118 72.63 10.433 100.73 19.406 29.93 9.561 59.26 22.87 84.82 38.491 28.47 17.353 54.21 38.311 76.5 62.293 20.01 21.52 36.99 45.168 50.48 70.288l-.78.169c-20.07-37.377-58.37-90.681-126.78-132.372-25.49-15.586-54.76-28.864-84.61-38.402-28.02-8.948-64.74-19.234-100.36-19.35-11.73-.044-22.61.831-33.26 2.661-31.38 5.388-61.58 22.741-85.05 48.863-9.51 10.511-17.27 21.671-24.78 32.465-2.41 3.458-4.9 7.033-7.37 10.49-6.43 8.955-12.13 19.626-18.17 30.924-12.94 24.203-27.6 51.636-54.5 71.473-14.93 11.012-32.5 18.594-53.72 23.18-17.98 3.885-37.41 5.777-59.38 5.777Z"/><path d="M1028.27 323.69c-4.27 0-8.62-.088-13.09-.262-19.53-.762-38.513-3.047-57.859-5.522-22.427-2.869-45.076-6.707-69.242-11.733-19.121-4.013-37.871-8.583-55.73-13.587-45.307-12.675-90.292-31.334-145.859-60.498-13.801-7.242-27.596-14.838-40.937-22.185-7.263-3.998-14.771-8.134-22.21-12.173-39.478-21.376-80.88-36.902-123.056-46.151-55.727-12.22-113.001-14.458-175.101-6.841-32.809 4.025-66.23 10.336-96.648 18.251-24.435 6.358-45.721 15.288-68.258 24.742l-1.558.653c-3.52 1.482-7.079 2.984-10.681 4.504l-6.271 2.648c-13.141 5.572-27.335 11.385-43.611 15.859-18.899 5.195-37.59 7.75-57.15 7.813-32.565.101-65.78-4.7-97.899-9.346-4.584-.664-9.327-1.349-13.93-2-21.58-3.05-38.593-4.805-53.548-5.527-55.185-2.661-107.266-.786-142.891 5.147l-.228-.547c35.719-5.949 87.906-7.831 143.188-5.164 14.996.723 32.053 2.483 53.674 5.539 4.606.652 9.35 1.337 13.936 2.001 31.725 4.589 64.52 9.332 96.653 9.332.346 0 .692 0 1.041-.002 41.561-.132 71.146-11.228 100.273-23.576l6.271-2.647c3.602-1.522 7.158-3.023 10.681-4.506l1.558-.654c22.575-9.469 43.897-18.414 68.412-24.794 30.473-7.93 63.952-14.252 96.818-18.284 62.257-7.636 119.685-5.391 175.563 6.862 42.281 9.273 83.779 24.835 123.345 46.258 7.439 4.04 14.949 8.174 22.212 12.175 13.336 7.345 27.128 14.939 40.921 22.176 55.501 29.13 100.423 47.763 145.65 60.417 17.835 4.996 36.557 9.561 55.65 13.566 24.13 5.02 46.747 8.853 69.14 11.716 33.993 4.349 76.301 9.763 118.431 1.424 21.66-4.286 39.23-11.864 53.71-23.169 26.54-20.707 38.84-49.831 49.7-75.524 4.71-11.162 9.17-21.706 14.37-30.456 2.02-3.409 4.05-6.935 6.02-10.346 6.58-11.439 13.39-23.267 22.13-34.517 9.87-12.784 21.35-23.781 34.12-32.684 14.48-10.089 30.29-17.212 47-21.174 10.72-2.543 21.71-4.11 33.59-4.792 15.92-.913 32.86.063 51.8 2.977 16.02 2.469 33.19 6.3 52.51 11.715 31.14 8.734 61.45 21.557 87.65 37.082 29.24 17.272 55.18 38.437 77.11 62.905 19.75 22.033 35.84 46.223 47.82 71.899l-.86.16c-25.3-54.207-69.58-101.991-124.68-134.549-26.13-15.483-56.35-28.269-87.41-36.977C1398.9 89.656 1365.9 85 1336.65 86.677c-11.8.676-22.71 2.233-33.36 4.757-39.75 9.424-65.79 34.339-80.63 53.578-8.72 11.221-15.52 23.035-22.1 34.46-1.96 3.413-3.99 6.941-6.02 10.352-5.18 8.724-9.63 19.255-14.34 30.403-10.88 25.749-23.21 54.934-49.86 75.735-14.6 11.394-32.32 19.034-54.15 23.354-14.8 2.929-30.58 4.374-47.92 4.374Z"/><path d="M1047.32 326.504c-29.06 0-56.996-4.736-80.898-8.787-22.487-3.81-45.125-8.572-69.209-14.556-19.013-4.758-37.642-10.046-55.367-15.72-53.133-16.987-100.5-41.37-143.771-65.189-8.835-4.863-17.76-9.876-26.389-14.723-11.981-6.732-24.372-13.692-36.788-20.399-40.069-21.587-82.808-36.268-127.029-43.636-57.206-9.529-116.522-7.766-181.337 5.39-33.372 6.773-66.76 15.932-96.557 26.488-22.981 8.14-42.426 18.416-63.012 29.296-1.459.771-2.921 1.545-4.391 2.318l-.797.422a4010.125 4010.125 0 0 1-15.425 8.131c-12.569 6.611-26.411 13.449-42.421 18.673-18.585 6.064-37.32 9.088-57.285 9.245-35.043.277-70.759-5.972-105.296-12.015-2.42-.423-4.83-.845-7.23-1.262-22.775-3.963-39.39-6.313-53.866-7.62-53.801-4.856-107.948-6.383-148.558-4.188l-.083-.609c40.677-2.199 94.903-.671 148.775 4.192 14.518 1.311 31.168 3.666 53.985 7.636 2.4.417 4.81.839 7.233 1.264 34.471 6.031 70.118 12.264 105.026 11.992 43.356-.342 73.889-14.518 99.105-27.778 5.246-2.747 10.42-5.484 15.424-8.13l.797-.421 4.392-2.319c20.621-10.899 40.099-21.193 63.157-29.36 29.852-10.575 63.304-19.75 96.733-26.536 30.729-6.236 59.591-9.837 88.234-11.008 31.951-1.306 63.454.582 93.638 5.61 44.362 7.391 87.228 22.114 127.409 43.76 12.424 6.71 24.818 13.672 36.802 20.405 8.629 4.847 17.549 9.858 26.381 14.72 43.226 23.793 90.536 48.15 143.573 65.106 17.7 5.664 36.301 10.946 55.287 15.697 24.048 5.975 46.65 10.73 69.104 14.535 34.474 5.843 77.384 13.114 119.784 5.463 22.24-4.016 39.93-11.642 54.07-23.313 26.26-21.681 36.09-52.597 44.76-79.874 3.48-10.96 6.77-21.312 10.83-29.813 1.5-3.144 3-6.393 4.46-9.536 5.7-12.291 11.59-25.003 19.65-37.192 8.77-13.363 19.33-25.027 31.37-34.664 13.6-10.875 28.84-18.93 45.32-23.945 10.7-3.256 21.73-5.514 33.71-6.903 16.15-1.87 34.07-1.807 53.26.187 16.8 1.746 35.18 5.039 54.61 9.788 32.36 7.908 63.66 20.244 90.5 35.673 29.99 17.191 56.14 38.56 77.71 63.516 19.49 22.546 34.69 47.279 45.17 73.511l-.94.15c-22.2-55.584-65.73-104.141-122.58-136.724-26.76-15.379-57.95-27.674-90.2-35.556-41.81-10.215-76.92-13.47-107.35-9.943-11.9 1.378-22.85 3.62-33.48 6.851-39.2 11.931-63.08 38.285-76.21 58.295-8.04 12.157-13.93 24.851-19.62 37.127a848.005 848.005 0 0 1-4.46 9.541c-4.05 8.473-7.33 18.811-10.81 29.757-4.17 13.123-8.9 27.996-15.76 41.94-7.86 15.976-17.41 28.466-29.18 38.185-6.8 5.62-14.62 10.402-23.24 14.216-9.28 4.101-19.82 7.235-31.33 9.313-13.17 2.379-26.39 3.326-39.39 3.326Z"/><path d="M1064.5 329.589c-9.61 0-19.67-.593-30.31-1.776-20.94-2.33-40.981-6.559-58.667-10.287-22.292-4.701-45.567-10.549-69.176-17.38-18.892-5.497-37.4-11.503-55.004-17.855-50.528-18.209-94.059-42.421-141.682-69.88-4.232-2.44-8.53-4.929-12.685-7.338-16.364-9.48-33.284-19.283-50.522-28.545-40.734-21.84-84.81-35.674-131.004-41.119-58.269-6.869-121.38-.943-187.571 17.616-33.966 9.524-67.324 21.53-96.467 34.723-21.942 9.933-40.005 21.644-59.129 34.044-1.942 1.26-3.894 2.524-5.856 3.793a2098.712 2098.712 0 0 1-15.493 9.952c-11.22 7.148-24.894 15.293-41.231 21.486-18.288 6.934-37.071 10.428-57.417 10.681-37.247.465-75.161-7.357-111.828-14.922l-1.396-.287c-17.953-3.702-36.944-7.443-54.186-9.714-52.553-6.921-107.323-11.727-154.218-13.531l.063-.652c46.944 1.806 101.765 6.615 154.364 13.543 17.29 2.278 36.315 6.024 54.296 9.731l1.396.288c36.587 7.547 74.424 15.351 111.49 14.889 42.805-.534 72.368-15.684 97.939-31.977 5.35-3.396 10.604-6.789 15.488-9.949 1.962-1.267 3.913-2.533 5.856-3.791 19.156-12.421 37.252-24.153 59.266-34.119 29.198-13.219 62.619-25.248 96.648-34.789 31.055-8.706 61.616-14.706 90.827-17.829 33.378-3.568 66.131-3.512 97.352.167 46.37 5.466 90.607 19.349 131.478 41.264 17.253 9.271 34.18 19.077 50.553 28.563 4.155 2.407 8.453 4.896 12.685 7.336 47.576 27.433 91.061 51.619 141.498 69.796 17.579 6.341 36.06 12.339 54.925 17.829 23.575 6.821 46.812 12.66 69.071 17.354 34.887 7.359 78.317 16.514 121.137 9.499 22.84-3.742 40.64-11.413 54.42-23.454 25.97-22.685 33.49-56.877 39.53-84.352 2.35-10.702 4.57-20.81 7.58-29.037.95-2.593 1.91-5.265 2.84-7.85 4.81-13.428 9.78-27.315 17.24-40.743 11.53-20.896 33.42-48.85 72.26-63.357 10.72-4.006 21.79-6.955 33.83-9.015 31.49-5.468 68.99-3.699 111.44 5.255 33.57 7.082 65.85 18.929 93.34 34.262 30.75 17.109 57.1 38.684 78.31 64.13 9.74 11.671 18.33 24.137 25.57 37.051 6.91 12.335 12.6 25.144 16.94 38.072l-1.01.136c-19.09-56.965-61.88-106.293-120.49-138.899-27.39-15.276-59.54-27.078-92.99-34.133-42.25-8.914-79.55-10.678-110.84-5.245-11.95 2.045-22.93 4.971-33.58 8.947-38.58 14.406-60.34 42.217-71.8 63.011-7.45 13.393-12.41 27.26-17.22 40.671-.92 2.585-1.88 5.258-2.83 7.854-3 8.199-5.22 18.293-7.57 28.979-3.04 13.825-6.48 29.495-12.37 44.284-6.76 16.994-15.71 30.198-27.34 40.363-6.64 5.799-14.41 10.689-23.08 14.534-9.35 4.144-20.09 7.229-31.93 9.167-10.39 1.705-21.24 2.555-32.74 2.555Z"/><path d="M1080.33 332.85c-11.52 0-23.66-.946-36.63-2.845-21.02-3.073-41.24-8.173-59.078-12.673-22.46-5.665-45.722-12.461-69.14-20.201-18.769-6.231-37.154-12.956-54.642-19.989-48.123-19.338-89.398-44.263-133.098-70.649l-6.493-3.92c-20.322-12.256-41.333-24.931-63.237-36.644-41.443-22.117-86.854-35.106-134.972-38.606-60.44-4.398-125.648 5.644-193.815 29.842-34.097 12.103-68.324 27.36-96.376 42.958-21.181 11.777-38.17 25.029-56.155 39.06-2.13 1.661-4.265 3.328-6.417 4.997a1434.92 1434.92 0 0 1-14.765 11.356c-9.915 7.524-23.424 17.087-40.039 24.28-17.996 7.793-36.82 11.765-57.549 12.14-17.037.27-35.84-1.398-57.483-5.102-18.582-3.179-36.556-7.334-56.447-12.041-18.156-4.348-37.318-8.84-54.509-11.807-50.924-8.788-104.714-16.483-159.872-22.876l.198-.685c55.191 6.395 109.011 14.097 159.962 22.889 17.239 2.975 36.428 7.474 54.606 11.826 33.339 7.89 74.831 17.714 113.515 17.099 44.227-.802 72.649-17.859 96.774-36.173a1424.153 1424.153 0 0 0 14.757-11.348c2.152-1.67 4.287-3.336 6.414-4.996 18.016-14.054 35.035-27.328 56.285-39.144 28.109-15.629 62.402-30.915 96.565-43.041 68.374-24.272 133.807-34.339 194.477-29.926 23.262 1.693 46.112 5.623 67.909 11.682a333.758 333.758 0 0 1 67.646 27.084c21.929 11.725 42.954 24.407 63.286 36.673l6.497 3.92c43.657 26.362 84.897 51.263 132.927 70.565 17.463 7.022 35.82 13.738 54.562 19.959 23.385 7.728 46.612 14.515 69.038 20.171 35.249 8.89 79.109 19.952 122.489 13.537 23.49-3.476 41.41-11.194 54.77-23.594 25.75-23.683 30.33-59.863 34.01-88.932 1.32-10.397 2.57-20.217 4.63-28.159.43-1.638.85-3.285 1.28-4.941 3.85-14.957 7.84-30.424 14.76-45.518 9.89-21.711 29.68-51.15 67.83-68.106 10.64-4.73 21.74-8.37 33.94-11.127 16.96-3.868 35.86-5.686 56.17-5.407 18.54.255 38.34 2.254 58.84 5.94 34.79 6.252 68.05 17.611 96.19 32.849 31.51 17.025 58.06 38.809 78.91 64.743 9.57 11.9 17.86 24.622 24.63 37.813 6.48 12.633 11.61 25.73 15.22 38.926l-1.09.118c-15.73-57.503-58.88-108.921-118.38-141.07-28.03-15.172-61.14-26.484-95.78-32.711-42.71-7.68-82.25-7.868-114.35-.548-12.1 2.737-23.12 6.348-33.68 11.042-37.88 16.84-57.55 46.127-67.39 67.73-6.91 15.054-10.89 30.498-14.74 45.436-.42 1.656-.85 3.305-1.28 4.943-2.05 7.911-3.3 17.719-4.61 28.101-3.7 29.153-8.3 65.437-34.2 89.272-6.44 5.977-14.15 10.979-22.89 14.865-9.41 4.179-20.36 7.212-32.54 9.014-8.8 1.297-17.9 1.949-27.44 1.949Z"/><path d="M1095.2 336.242c-13.12 0-27.02-1.345-42-4.047-21.19-3.822-41.54-9.792-59.484-15.058-22.683-6.655-45.934-14.402-69.108-23.023-18.634-6.955-36.894-14.399-54.278-22.122-42.806-19.013-79.391-42.304-118.124-66.964a5369.973 5369.973 0 0 0-19.376-12.297c-22.836-14.397-42.336-26.269-63.268-37.405-42.182-22.409-88.926-34.553-138.937-36.094-62.841-1.936-130.154 12.217-200.064 42.066-34.729 14.829-68.925 33.009-96.287 51.192-20.613 13.698-36.728 28.609-53.787 44.395-2.114 1.956-4.235 3.919-6.37 5.883-3.804 3.505-8.838 8.124-14.034 12.755-21.869 19.536-50.44 39.648-96.527 40.677-1.438.029-2.88.043-4.32.043-35.988 0-72.73-9.034-110.317-19.121l-2.346-.634c-18.618-5.041-36.205-9.801-52.485-13.266-61.349-13.058-120.682-24.081-165.518-32.224l.321-.713c44.848 8.146 104.197 19.171 165.568 32.235 16.323 3.473 33.93 8.24 52.573 13.286l2.344.635c38.964 10.456 77.016 19.783 114.139 19.019 45.575-1.017 73.907-20.975 95.614-40.364 5.194-4.627 10.223-9.243 14.026-12.746 2.135-1.966 4.254-3.927 6.367-5.883 17.087-15.811 33.226-30.746 53.905-44.488 27.417-18.221 61.682-36.437 96.48-51.296 32.298-13.791 64.606-24.38 96.027-31.475 36.051-8.142 71.295-11.747 104.746-10.716 50.27 1.547 97.25 13.75 139.63 36.264 20.961 11.154 40.481 23.038 63.339 37.447 6.499 4.098 13.047 8.267 19.381 12.298 38.695 24.636 75.244 47.905 117.967 66.879 17.36 7.715 35.593 15.147 54.199 22.091 23.141 8.61 46.357 16.346 69.006 22.99 35.558 10.432 79.798 23.414 123.838 17.569 24.08-3.195 42.11-10.958 55.13-23.732 25.42-24.763 26.94-62.978 28.17-93.685.4-10.018.78-19.483 1.99-27.108l.03-.175c2.72-17.076 5.53-34.732 11.97-52.153 5.59-15.196 13.36-28.858 23.11-40.609 10.99-13.248 24.54-24.097 40.28-32.245 10.53-5.452 21.67-9.784 34.06-13.24 33.46-9.393 74.47-10.843 118.58-4.19 17.76 2.677 35.27 6.733 52.06 12.053 16.89 5.35 32.7 11.875 46.98 19.387 32.28 16.944 59.03 38.933 79.52 65.359 18.42 23.752 31.28 50.846 37.19 78.353l-1.16.099c-12.64-58.871-55.03-111.081-116.29-143.241-28.65-15.063-62.73-25.884-98.56-31.285-43.87-6.615-84.62-5.18-117.84 4.148-12.29 3.43-23.34 7.727-33.79 13.136-29.39 15.214-51.17 40.266-62.99 72.447-6.43 17.376-9.24 35.008-11.95 52.06l-.03.174c-1.21 7.598-1.59 17.048-1.99 27.053-1.23 30.801-2.77 69.131-28.36 94.068-6.28 6.16-13.93 11.27-22.73 15.188-9.48 4.225-20.63 7.208-33.14 8.869-7.44.986-15.12 1.481-23.08 1.481Z"/><path d="M64.41 340.513c-16.093 0-33.617-1.989-53.394-6.05-19.651-4.035-39.085-9.606-57.162-15.023-3.273-.987-6.52-1.972-9.747-2.949-16.06-4.869-31.228-9.467-45.405-13.048-56.53-14.277-110.413-27.109-162.524-39.516l-8.634-2.057.434-.733 8.635 2.056c52.113 12.41 106.004 25.242 162.545 39.523 14.215 3.59 29.403 8.194 45.482 13.069 3.224.978 6.472 1.962 9.742 2.947 37.106 11.12 76.53 21.897 114.765 20.937 47.002-1.241 75.17-24.465 94.455-44.556 4.941-5.139 9.701-10.259 13.295-14.146 1.984-2.142 3.954-4.283 5.919-6.418 16.296-17.7 31.688-34.419 51.93-50.183 26.719-20.804 60.951-41.954 96.395-59.549 32.882-16.325 66.065-29.223 98.629-38.335 37.351-10.453 73.833-15.877 108.434-16.123 52.064-.492 100.42 10.869 143.707 33.763 23.996 12.707 45.51 26.452 63.394 38.223 9.731 6.405 19.462 12.971 28.874 19.321 33.314 22.479 67.763 45.722 106.397 64.548 17.258 8.412 35.373 16.562 53.837 24.222 22.85 9.46 46.054 18.143 68.977 25.809 35.82 11.981 80.4 26.893 125.19 21.601 24.65-2.913 42.8-10.721 55.47-23.872 25.08-25.885 23.39-66.194 22.03-98.582-.4-9.578-.79-18.626-.33-25.91 1.03-16.421 2.58-35.505 7.96-54.197 4.53-15.838 11.38-30.167 20.34-42.588 10.14-14.05 23.13-25.83 38.62-35.012 10.25-6.084 21.75-11.249 34.16-15.352 17.72-5.874 37.59-9.567 59.09-10.975 20.12-1.32 41.34-.626 63.07 2.06 18.32 2.266 36.38 5.992 53.67 11.078 17.4 5.118 33.62 11.494 48.22 18.95 16.82 8.586 32.29 18.725 45.97 30.136 12.96 10.812 24.45 22.87 34.15 35.838 18.14 24.261 30.08 51.915 34.52 79.969l-1.23.078c-9.54-60.243-51.16-113.242-114.19-145.41-28.87-14.748-64.86-25.356-101.35-29.869-45.12-5.58-87.08-2.522-121.34 8.84-12.32 4.07-23.72 9.195-33.9 15.231-29.17 17.3-48.88 43.263-58.58 77.168-5.37 18.641-6.92 37.692-7.94 54.086-.46 7.258-.08 16.292.32 25.858.67 15.978 1.43 34.089-1.12 51.598-2.96 20.316-9.85 35.825-21.08 47.414-6.11 6.341-13.7 11.562-22.56 15.515-9.56 4.27-20.91 7.204-33.74 8.718-6.47.765-12.94 1.112-19.37 1.112-38.49 0-75.79-12.476-106.63-22.791-22.951-7.678-46.191-16.374-69.071-25.847-18.491-7.671-36.631-15.833-53.913-24.257-38.714-18.865-73.199-42.132-106.546-64.632-9.409-6.348-19.137-12.912-28.863-19.314-17.859-11.757-39.343-25.483-63.295-38.165-43.053-22.772-91.127-34.067-142.899-33.582-81.306.578-157.074 29.841-206.319 54.29-35.372 17.561-69.535 38.665-96.197 59.428-20.181 15.717-35.551 32.409-51.822 50.081a2977.057 2977.057 0 0 1-5.922 6.42c-3.597 3.888-8.359 9.013-13.303 14.156-8.096 8.435-20.805 20.712-37.639 29.915a120.041 120.041 0 0 1-25.859 10.441c-10.017 2.742-20.773 4.283-31.963 4.577-1.585.044-3.182.065-4.79.065Z"/><path d="M69.577 364.777c-16.112 0-33.6-2.142-53.273-6.513-20.369-4.525-40.506-10.887-57.516-16.515-5.227-1.733-10.443-3.49-15.488-5.189-14.103-4.75-27.425-9.238-39.986-12.902-45.109-13.159-89.924-26.007-133.266-38.433-14.336-4.11-29.159-8.359-43.525-12.486l.538-.755a87713.12 87713.12 0 0 0 43.526 12.487c43.342 12.425 88.162 25.275 133.273 38.436 12.594 3.674 25.933 8.166 40.053 12.923a3624.866 3624.866 0 0 0 15.48 5.187c35.278 11.667 76.199 24.018 115.383 22.856 48.11-1.461 75.131-26.82 93.301-48.748 4.658-5.618 9.162-11.258 12.564-15.544 1.747-2.2 3.484-4.398 5.218-6.591 15.587-19.722 30.308-38.349 50.209-56.237 25.884-23.266 60.088-47.345 96.307-67.803 50.44-28.367 128.398-62.969 213.351-66.722 54.026-2.45 103.751 8.067 147.788 31.263 19.786 10.426 39.352 22.453 63.446 38.999 12.177 8.361 24.26 17.028 35.944 25.406 30.402 21.8 61.834 44.342 97.253 63.158 17.158 9.117 35.15 17.984 53.473 26.354 22.188 10.125 45.384 19.756 68.94 28.628 36.18 13.545 81.21 30.405 126.54 25.633 24.86-2.562 43.64-10.641 55.83-24.01 24.73-27.056 19.42-71.322 15.54-103.642-1.08-9.07-2.11-17.637-2.31-24.548-.45-15.36-.41-35.611 3.92-56.065 7.48-35.444 25.82-63.15 54.52-82.346 10.06-6.763 21.59-12.639 34.28-17.465 18.05-6.875 38.42-11.499 60.54-13.742 20.83-2.113 42.76-2.08 65.18.1 18.91 1.878 37.51 5.284 55.28 10.12 17.94 4.883 34.58 11.105 49.46 18.494 17.2 8.537 32.91 18.711 46.7 30.241 13.07 10.927 24.51 23.156 34.03 36.35 17.86 24.772 28.88 52.984 31.86 81.586l-1.3.054c-6.42-61.618-47.28-115.409-112.09-147.577-29.39-14.594-66.37-24.699-104.14-28.45-46.55-4.523-89.72.157-124.84 13.535-12.59 4.786-24.03 10.615-34.01 17.323-28.5 19.069-46.73 46.619-54.17 81.888-4.33 20.398-4.36 40.61-3.91 55.94.2 6.886 1.22 15.443 2.31 24.501 2 16.707 4.27 35.644 2.98 54.132-1.52 21.528-7.63 37.879-18.7 49.988-5.96 6.531-13.49 11.864-22.39 15.852-9.64 4.325-21.2 7.204-34.35 8.56-20.39 2.146-42.34.218-67.09-5.895-21.52-5.314-42.14-13.032-60.33-19.84-23.592-8.884-46.818-18.53-69.038-28.669-18.351-8.382-36.367-17.261-53.551-26.391-35.493-18.854-66.961-41.42-97.392-63.243-11.679-8.376-23.76-17.037-35.925-25.392-24.053-16.516-43.584-28.52-63.323-38.922-43.776-23.064-93.185-33.518-146.867-31.083-84.587 3.739-162.287 38.234-212.576 66.516-36.147 20.416-70.281 44.445-96.109 67.661-19.846 17.838-34.545 36.439-50.107 56.132-1.734 2.194-3.471 4.392-5.219 6.592-3.405 4.289-7.911 9.935-12.575 15.558-18.329 22.123-45.622 47.709-94.394 49.189-1.734.05-3.49.076-5.257.076Z"/><path d="M74.847 389.045c-44.023 0-90.214-17.149-131.163-32.353-12.583-4.672-24.468-9.085-35.762-12.817L-274.5 283.608l.635-.772 182.421 60.267c11.325 3.741 23.224 8.159 35.824 12.837 42.53 15.792 90.74 33.691 136.024 32.139 49.17-1.682 75.073-29.176 92.146-52.938 5.584-7.772 10.976-15.68 16.191-23.328 14.265-20.916 29.014-42.545 48.643-62.675 15.587-15.983 34.949-32.745 55.994-48.472 23.086-17.254 47.804-33.084 73.462-47.049 28.291-15.396 57.058-28.132 85.497-37.853 31.456-10.75 62.446-17.77 92.113-20.863 59.432-6.197 113.485 3.207 160.655 27.952 39.2 20.562 72.517 45.989 104.738 70.579 28.046 21.404 57.046 43.535 89.885 62.453 37.931 21.851 78.983 42.015 122.022 59.932 36.26 15.096 81.39 33.885 127.9 29.662 39.28-3.566 61.99-20.236 69.42-50.965 6.33-26.138.31-57.144-4.52-82.057-1.65-8.49-3.21-16.51-3.97-23.013-4.21-35.85-1.53-65.444 8.21-90.472 6.08-15.615 15.05-29.535 26.66-41.371 12.97-13.223 29.62-24.245 49.49-32.762 17.19-7.367 36.56-12.718 57.58-15.905 20.01-3.032 41.07-4.049 62.61-3.02 42.36 2.022 83.8 11.88 116.68 27.757 17.57 8.487 33.53 18.697 47.43 30.345 13.16 11.04 24.57 23.442 33.91 36.863 17.57 25.282 27.67 54.054 29.19 83.202l-1.37.03c-3.24-62.072-44.36-118.052-110-149.745-69.7-33.657-168.64-37.36-235.27-8.803-65.99 28.288-93.39 81.873-83.75 163.817.76 6.482 2.31 14.491 3.96 22.971 4.84 24.966 10.88 56.039 4.52 82.295-3.46 14.301-10.42 25.795-20.68 34.163-5.77 4.704-12.73 8.549-20.68 11.425-8.46 3.061-18.29 5.116-29.23 6.109-4.47.406-9.02.61-13.65.61-16.85 0-34.8-2.703-54.47-8.179-22.16-6.171-43.55-15.074-60.73-22.227-43.095-17.943-84.205-38.133-122.191-60.015-32.913-18.958-61.943-41.115-90.02-62.542-32.179-24.559-65.455-49.954-104.556-70.464-46.854-24.576-100.536-33.919-159.558-27.764-119.391 12.448-242.375 88.471-306.121 153.836-19.577 20.074-34.306 41.674-48.552 62.562-5.219 7.651-10.613 15.565-16.202 23.344-11.336 15.776-22.531 27.072-35.233 35.546a103.83 103.83 0 0 1-25.565 12.391c-10.046 3.261-20.989 5.116-32.525 5.512-1.863.061-3.74.092-5.62.092Z"/></g></svg>