<svg aria-hidden="true" style="position: absolute; width: 0; height: 0; overflow: hidden;" version="1.1"
    xmlns="http://www.w3.org/2000/svg" xmlns:xlink="http://www.w3.org/1999/xlink">
    <defs>
        <symbol id="icon-burger-menu" viewBox="0 0 52 32">
            <path stroke-width="2.4615" stroke-miterlimit="4" stroke-linecap="butt" stroke-linejoin="miter"
                d="M0 1.231h51.692M0 16h51.692M0 30.769h51.692"></path>
        </symbol>
        <symbol id="icon-logo" viewBox="0 0 39 32">
            <path
                d="M0 3.056v7.203c0 2.194 2.673 3.364 4.307 1.828l7.797-7.203c1.708-1.572 0.594-4.351-1.745-4.351h-7.797c-1.411 0-2.562 1.133-2.562 2.523z">
            </path>
            <path
                d="M36.905 0.533h-7.797c-2.302 0-3.453 2.779-1.745 4.351l7.797 7.203c1.634 1.499 4.307 0.366 4.307-1.828v-7.203c0-1.389-1.151-2.523-2.562-2.523z">
            </path>
            <path
                d="M21.497 18.121l13.663 12.651c1.634 1.499 4.307 0.366 4.307-1.828v-7.276c0-0.695-0.297-1.353-0.817-1.828l-17.153-15.905c-1.002-0.914-2.525-0.914-3.527 0l-17.153 15.905c-0.52 0.475-0.817 1.133-0.817 1.828v7.276c0 2.194 2.673 3.364 4.307 1.828l13.663-12.651c1.002-0.914 2.525-0.914 3.527 0z">
            </path>
        </symbol>
        <symbol id="icon-arrow" viewBox="0 0 32 32">
            <path stroke-width="2.6667" stroke-miterlimit="4" stroke-linecap="round" stroke-linejoin="round"
                d="M2.667 16h26.667"></path>
            <path stroke-width="2.6667" stroke-miterlimit="4" stroke-linecap="round" stroke-linejoin="round"
                d="M16 2.667l13.333 13.333-13.333 13.333"></path>
        </symbol>
        <symbol id="icon-check" viewBox="0 0 30 32">
            <path fill="none" stroke-width="3.0476" stroke-miterlimit="4" stroke-linecap="round" stroke-linejoin="round"
                d="M28.961 14.879v1.262c-0.002 2.958-0.96 5.837-2.731 8.206s-4.261 4.103-7.098 4.942c-2.837 0.839-5.869 0.738-8.644-0.287s-5.144-2.92-6.754-5.402c-1.61-2.482-2.375-5.418-2.18-8.37s1.338-5.762 3.26-8.011c1.922-2.249 4.52-3.816 7.405-4.468s5.905-0.354 8.607 0.85">
            </path>
            <path fill="none" stroke-width="3.0476" stroke-miterlimit="4" stroke-linecap="round" stroke-linejoin="round"
                d="M28.961 5.166l-13.719 13.732-4.116-4.116"></path>
        </symbol>
        <symbol id="icon-apple" viewBox="0 0 26 32">
            <path
                d="M21.504 18.011c-0.867-4.366 3.276-6.926 3.276-6.926s-1.615-2.336-4.328-2.937c-2.712-0.602-4.069 0.15-5.424 0.715-1.356 0.566-2.033 0.566-2.033 0.566-1.957 0-3.387-2.072-7.116-1.129-2.569 0.648-5.273 3.613-5.761 7.152-0.489 3.54 0.566 8.058 2.598 11.559 2.033 3.504 4.103 4.821 5.573 4.858 1.47 0.037 2.937-1.053 4.706-1.318 1.77-0.263 2.86 0.641 4.596 1.13 1.73 0.487 2.336 0.035 4.328-1.659 1.997-1.694 3.806-6.554 3.806-6.554s-3.354-1.088-4.221-5.457z">
            </path>
            <path
                d="M17.663 5.324c1.922-1.958 1.271-4.99 1.271-4.99s-2.699 0.474-4.507 2.355c-1.807 1.882-1.508 4.856-1.508 4.856s2.822-0.264 4.743-2.221z">
            </path>
        </symbol>
        <symbol id="icon-microsoft" viewBox="0 0 146 32">
            <path fill="#706d6e" style="fill: var(--color2, #706d6e)"
                d="M146.106 14.613v-2.593h-3.184v-4.031l-0.107 0.033-3.049 0.944v3.054h-4.72v-1.701c0-0.792 0.175-1.399 0.52-1.803 0.343-0.399 0.833-0.603 1.459-0.603 0.45 0 0.915 0.107 1.384 0.318l0.117 0.053v-2.731l-0.055-0.021c-0.437-0.159-1.032-0.239-1.768-0.239-0.929 0-1.772 0.204-2.508 0.609s-1.316 0.985-1.721 1.721c-0.404 0.735-0.61 1.585-0.61 2.525v1.871h-2.217v2.593h2.217v10.923h3.183v-10.923h4.72v6.942c0 2.859 1.333 4.308 3.963 4.308 0.432 0 0.887-0.051 1.351-0.151 0.473-0.103 0.794-0.206 0.984-0.316l0.042-0.025v-2.617l-0.13 0.087c-0.173 0.116-0.388 0.212-0.64 0.282-0.253 0.072-0.465 0.108-0.628 0.108-0.616 0-1.072-0.168-1.355-0.499-0.286-0.334-0.431-0.919-0.431-1.737v-6.381h3.184zM122.541 23.23c-1.156 0-2.066-0.387-2.708-1.15-0.646-0.767-0.973-1.86-0.973-3.249 0-1.433 0.327-2.555 0.973-3.335 0.642-0.775 1.544-1.169 2.681-1.169 1.104 0 1.982 0.376 2.611 1.118 0.632 0.746 0.953 1.858 0.953 3.308 0 1.468-0.302 2.595-0.897 3.349-0.591 0.748-1.48 1.129-2.641 1.129zM122.682 11.694c-2.204 0-3.954 0.653-5.202 1.941-1.247 1.288-1.879 3.071-1.879 5.299 0 2.116 0.617 3.818 1.835 5.059s2.875 1.869 4.925 1.869c2.136 0 3.852-0.662 5.099-1.968 1.247-1.304 1.879-3.070 1.879-5.246 0-2.149-0.593-3.864-1.763-5.096s-2.817-1.857-4.893-1.857zM110.47 11.694c-1.499 0-2.739 0.388-3.687 1.152-0.953 0.769-1.436 1.778-1.436 2.999 0 0.634 0.105 1.198 0.31 1.676 0.207 0.48 0.526 0.902 0.951 1.256 0.422 0.352 1.072 0.72 1.935 1.095 0.725 0.302 1.265 0.557 1.609 0.758 0.336 0.197 0.574 0.395 0.708 0.588 0.131 0.189 0.197 0.447 0.197 0.766 0 0.908-0.672 1.35-2.056 1.35-0.514 0-1.099-0.108-1.74-0.322-0.637-0.21-1.238-0.519-1.782-0.914l-0.132-0.096v3.099l0.048 0.023c0.451 0.21 1.018 0.387 1.687 0.527 0.668 0.14 1.274 0.211 1.802 0.211 1.627 0 2.937-0.39 3.892-1.159 0.962-0.774 1.45-1.807 1.45-3.070 0-0.911-0.263-1.692-0.78-2.322-0.514-0.625-1.405-1.199-2.649-1.706-0.991-0.402-1.626-0.736-1.888-0.992-0.252-0.248-0.381-0.598-0.381-1.041 0-0.393 0.158-0.708 0.483-0.963 0.328-0.256 0.783-0.387 1.355-0.387 0.53 0 1.073 0.085 1.612 0.251s1.012 0.388 1.408 0.66l0.13 0.090v-2.939l-0.050-0.022c-0.365-0.158-0.845-0.293-1.429-0.403-0.582-0.109-1.109-0.164-1.567-0.164zM97.050 23.23c-1.155 0-2.066-0.387-2.707-1.15-0.646-0.767-0.973-1.86-0.973-3.249 0-1.433 0.327-2.555 0.973-3.335 0.642-0.775 1.544-1.169 2.681-1.169 1.103 0 1.981 0.376 2.611 1.118 0.632 0.746 0.953 1.858 0.953 3.308 0 1.468-0.302 2.595-0.897 3.349-0.591 0.748-1.48 1.129-2.642 1.129zM97.192 11.694c-2.204 0-3.955 0.653-5.202 1.941s-1.88 3.071-1.88 5.299c0 2.117 0.618 3.818 1.835 5.059s2.874 1.869 4.924 1.869c2.136 0 3.852-0.662 5.099-1.968 1.247-1.304 1.879-3.070 1.879-5.246 0-2.149-0.593-3.864-1.764-5.096s-2.817-1.857-4.893-1.857zM85.279 14.361v-2.341h-3.144v13.516h3.144v-6.914c0-1.176 0.264-2.141 0.784-2.871 0.514-0.721 1.198-1.086 2.033-1.086 0.283 0 0.601 0.047 0.945 0.141 0.34 0.093 0.587 0.194 0.733 0.3l0.132 0.097v-3.205l-0.051-0.022c-0.293-0.126-0.707-0.189-1.231-0.189-0.79 0-1.497 0.257-2.102 0.762-0.531 0.444-0.916 1.053-1.209 1.813h-0.034zM76.506 11.694c-1.442 0-2.729 0.313-3.823 0.929-1.097 0.618-1.944 1.5-2.521 2.622-0.574 1.119-0.866 2.426-0.866 3.884 0 1.277 0.283 2.449 0.842 3.482 0.559 1.035 1.351 1.844 2.352 2.405 1.001 0.561 2.157 0.845 3.437 0.845 1.494 0 2.77-0.302 3.792-0.898l0.042-0.024v-2.913l-0.133 0.098c-0.463 0.341-0.981 0.614-1.538 0.81-0.556 0.196-1.063 0.295-1.507 0.295-1.234 0-2.224-0.39-2.942-1.16-0.72-0.771-1.085-1.853-1.085-3.214 0-1.37 0.381-2.48 1.131-3.299 0.749-0.816 1.741-1.231 2.949-1.231 1.033 0 2.040 0.354 2.993 1.053l0.132 0.097v-3.069l-0.043-0.024c-0.359-0.203-0.848-0.371-1.455-0.498-0.604-0.127-1.195-0.191-1.757-0.191zM67.131 12.020h-3.144v13.516h3.144v-13.516zM65.592 6.262c-0.518 0-0.969 0.178-1.339 0.531-0.372 0.354-0.561 0.8-0.561 1.326 0 0.518 0.186 0.955 0.555 1.3 0.367 0.344 0.819 0.518 1.346 0.518s0.98-0.174 1.351-0.517c0.373-0.345 0.562-0.783 0.562-1.3 0-0.508-0.184-0.949-0.547-1.311-0.362-0.362-0.822-0.545-1.366-0.545zM57.748 11.023v14.513h3.208v-18.86h-4.44l-5.644 14.008-5.477-14.008h-4.621v18.86h3.015v-14.514h0.104l5.784 14.514h2.275l5.693-14.513h0.104z">
            </path>
            <path fill="#f1511b" style="fill: var(--color3, #f1511b)" d="M15.117 15.331h-14.788v-14.956h14.788v14.956z">
            </path>
            <path fill="#80cc28" style="fill: var(--color4, #80cc28)" d="M31.445 15.33h-14.788v-14.956h14.788v14.956z">
            </path>
            <path fill="#00adef" style="fill: var(--color5, #00adef)" d="M15.117 31.85h-14.788v-14.956h14.788v14.956z">
            </path>
            <path fill="#fbbc09" style="fill: var(--color6, #fbbc09)" d="M31.445 31.85h-14.788v-14.956h14.788v14.956z">
            </path>
        </symbol>
        <symbol id="icon-slack" viewBox="0 0 125 32">
            <path fill="#000" style="fill: var(--color7, #000)"
                d="M40.224 24.82l1.549-3.578c1.674 1.242 3.898 1.888 6.097 1.888 1.624 0 2.649-0.621 2.649-1.565-0.025-2.634-9.721-0.572-9.796-7.181-0.025-3.354 2.974-5.938 7.222-5.938 2.524 0 5.048 0.621 6.847 2.037l-1.449 3.652c-1.649-1.044-3.698-1.789-5.648-1.789-1.324 0-2.199 0.621-2.199 1.416 0.025 2.584 9.796 1.168 9.896 7.479 0 3.429-2.924 5.839-7.122 5.839-3.074 0-5.898-0.721-8.047-2.261zM99.673 19.95c-0.775 1.342-2.224 2.261-3.898 2.261-2.474 0-4.473-1.988-4.473-4.448s1.999-4.448 4.473-4.448c1.674 0 3.124 0.919 3.898 2.261l4.273-2.36c-1.6-2.833-4.673-4.771-8.172-4.771-5.173 0-9.371 4.174-9.371 9.318s4.198 9.318 9.371 9.318c3.524 0 6.572-1.913 8.172-4.771l-4.273-2.36zM57.542 0.719h5.348v26.015h-5.348v-26.015zM106.045 0.719v26.015h5.348v-7.802l6.347 7.802h6.847l-8.071-9.268 7.472-8.647h-6.547l-6.047 7.181v-15.281h-5.348zM78.782 20c-0.775 1.267-2.374 2.211-4.173 2.211-2.474 0-4.473-1.988-4.473-4.448s1.999-4.448 4.473-4.448c1.799 0 3.398 0.994 4.173 2.286v4.398zM78.782 8.819v2.112c-0.875-1.466-3.048-2.485-5.323-2.485-4.698 0-8.396 4.125-8.396 9.293s3.698 9.342 8.396 9.342c2.274 0 4.448-1.019 5.323-2.485v2.112h5.348v-17.89h-5.348z">
            </path>
            <path fill="#e01e5a" style="fill: var(--color8, #e01e5a)"
                d="M7.164 19.975c0 1.814-1.474 3.28-3.299 3.28s-3.299-1.466-3.299-3.28c0-1.814 1.474-3.28 3.299-3.28h3.299v3.28zM8.814 19.975c0-1.814 1.474-3.28 3.299-3.28s3.299 1.466 3.299 3.28v8.199c0 1.814-1.474 3.28-3.299 3.28s-3.299-1.466-3.299-3.28v-8.199z">
            </path>
            <path fill="#36c5f0" style="fill: var(--color9, #36c5f0)"
                d="M12.112 6.806c-1.824 0-3.299-1.466-3.299-3.28s1.474-3.28 3.299-3.28c1.824 0 3.299 1.466 3.299 3.28v3.28h-3.299zM12.112 8.471c1.824 0 3.299 1.466 3.299 3.28s-1.474 3.28-3.299 3.28h-8.271c-1.824 0-3.299-1.466-3.299-3.28s1.474-3.28 3.299-3.28h8.271z">
            </path>
            <path fill="#2eb67d" style="fill: var(--color10, #2eb67d)"
                d="M25.331 11.751c0-1.814 1.474-3.28 3.299-3.28s3.299 1.466 3.299 3.28c0 1.814-1.474 3.28-3.299 3.28h-3.299v-3.28zM23.682 11.751c0 1.814-1.474 3.28-3.299 3.28s-3.299-1.466-3.299-3.28v-8.224c0-1.814 1.474-3.28 3.299-3.28s3.299 1.466 3.299 3.28v8.224z">
            </path>
            <path fill="#ecb22e" style="fill: var(--color11, #ecb22e)"
                d="M20.383 24.895c1.824 0 3.299 1.466 3.299 3.28s-1.474 3.28-3.299 3.28c-1.824 0-3.299-1.466-3.299-3.28v-3.28h3.299zM20.383 23.255c-1.824 0-3.299-1.466-3.299-3.28s1.474-3.28 3.299-3.28h8.271c1.824 0 3.299 1.466 3.299 3.28s-1.474 3.28-3.299 3.28h-8.271z">
            </path>
        </symbol>
        <symbol id="icon-google" viewBox="0 0 95 32">
            <path fill="#ea4335" style="fill: var(--color12, #ea4335)"
                d="M40.698 16.925c0 4.527-3.523 7.863-7.847 7.863s-7.847-3.336-7.847-7.863c0-4.559 3.523-7.863 7.847-7.863s7.847 3.304 7.847 7.863zM37.262 16.925c0-2.829-2.042-4.764-4.412-4.764s-4.412 1.936-4.412 4.764c0 2.801 2.042 4.765 4.412 4.765s4.412-1.967 4.412-4.764z">
            </path>
            <path fill="#fbbc05" style="fill: var(--color13, #fbbc05)"
                d="M57.626 16.925c0 4.527-3.523 7.863-7.847 7.863s-7.847-3.336-7.847-7.863c0-4.555 3.523-7.863 7.847-7.863s7.847 3.304 7.847 7.863zM54.191 16.925c0-2.829-2.042-4.764-4.412-4.764s-4.412 1.936-4.412 4.764c0 2.801 2.042 4.765 4.412 4.765s4.412-1.967 4.412-4.764z">
            </path>
            <path fill="#4285f4" style="fill: var(--color14, #4285f4)"
                d="M73.85 9.537v14.116c0 5.807-3.407 8.178-7.435 8.178-3.791 0-6.073-2.549-6.934-4.633l2.991-1.251c0.532 1.28 1.838 2.79 3.939 2.79 2.578 0 4.176-1.599 4.176-4.608v-1.131h-0.12c-0.769 0.954-2.25 1.787-4.119 1.787-3.912 0-7.495-3.424-7.495-7.831 0-4.438 3.583-7.891 7.495-7.891 1.865 0 3.347 0.833 4.119 1.758h0.12v-1.28h3.263v-0.004zM70.83 16.953c0-2.769-1.838-4.793-4.176-4.793-2.37 0-4.356 2.024-4.356 4.793 0 2.74 1.986 4.736 4.356 4.736 2.338 0 4.176-1.996 4.176-4.736z">
            </path>
            <path fill="#34a853" style="fill: var(--color15, #34a853)" d="M79.228 1.263v23.042h-3.351v-23.042h3.351z">
            </path>
            <path fill="#ea4335" style="fill: var(--color12, #ea4335)"
                d="M92.284 19.513l2.666 1.787c-0.86 1.28-2.934 3.485-6.517 3.485-4.444 0-7.763-3.453-7.763-7.863 0-4.676 3.347-7.863 7.378-7.863 4.059 0 6.045 3.247 6.694 5.002l0.356 0.893-10.457 4.353c0.8 1.578 2.045 2.382 3.791 2.382 1.749 0 2.962-0.865 3.851-2.177zM84.077 16.684l6.99-2.918c-0.384-0.982-1.541-1.666-2.903-1.666-1.746 0-4.176 1.549-4.088 4.584z">
            </path>
            <path fill="#4285f4" style="fill: var(--color14, #4285f4)"
                d="M12.321 14.88v-3.336h11.184c0.109 0.581 0.166 1.269 0.166 2.014 0 2.503-0.681 5.598-2.874 7.802-2.134 2.233-4.86 3.425-8.471 3.425-6.694 0-12.323-5.481-12.323-12.209s5.629-12.209 12.323-12.209c3.703 0 6.341 1.461 8.323 3.364l-2.342 2.354c-1.421-1.34-3.347-2.382-5.985-2.382-4.888 0-8.711 3.96-8.711 8.873s3.823 8.873 8.711 8.873c3.171 0 4.976-1.28 6.133-2.442 0.938-0.943 1.555-2.29 1.799-4.13l-7.932 0.004z">
            </path>
        </symbol>
    </defs>
</svg>